RedHatText-BoldItalic.ufo
<glyph name="exclam" format="2">
  <advance width="269"/>
  <unicode hex="0021"/>
  <outline>
    <contour>
      <point x="68" y="227" type="line"/>
      <point x="183" y="227" type="line"/>
      <point x="310" y="727" type="line"/>
      <point x="157" y="727" type="line"/>
    </contour>
    <contour>
      <point x="86" y="-11" type="curve" smooth="yes"/>
      <point x="137" y="-11"/>
      <point x="183" y="37"/>
      <point x="183" y="91" type="curve" smooth="yes"/>
      <point x="183" y="136"/>
      <point x="151" y="170"/>
      <point x="108" y="170" type="curve" smooth="yes"/>
      <point x="54" y="170"/>
      <point x="8" y="124"/>
      <point x="8" y="68" type="curve" smooth="yes"/>
      <point x="8" y="23"/>
      <point x="41" y="-11"/>
    </contour>
  </outline>
</glyph>
<glyph name="numbersign" format="2">
  <advance width="734"/>
  <unicode hex="0023"/>
  <outline>
    <contour>
      <point x="-3" y="0" type="line"/>
      <point x="132" y="0" type="line"/>
      <point x="233" y="184" type="line"/>
      <point x="356" y="184" type="line"/>
      <point x="255" y="0" type="line"/>
      <point x="389" y="0" type="line"/>
      <point x="490" y="184" type="line"/>
      <point x="628" y="184" type="line"/>
      <point x="652" y="298" type="line"/>
      <point x="553" y="298" type="line"/>
      <point x="610" y="402" type="line"/>
      <point x="721" y="402" type="line"/>
      <point x="746" y="516" type="line"/>
      <point x="673" y="516" type="line"/>
      <point x="774" y="700" type="line"/>
      <point x="640" y="700" type="line"/>
      <point x="539" y="516" type="line"/>
      <point x="416" y="516" type="line"/>
      <point x="517" y="700" type="line"/>
      <point x="382" y="700" type="line"/>
      <point x="281" y="516" type="line"/>
      <point x="142" y="516" type="line"/>
      <point x="117" y="402" type="line"/>
      <point x="218" y="402" type="line"/>
      <point x="161" y="298" type="line"/>
      <point x="49" y="298" type="line"/>
      <point x="25" y="184" type="line"/>
      <point x="98" y="184" type="line"/>
    </contour>
    <contour>
      <point x="296" y="298" type="line"/>
      <point x="353" y="402" type="line"/>
      <point x="476" y="402" type="line"/>
      <point x="419" y="298" type="line"/>
    </contour>
  </outline>
</glyph>
<glyph name="dollar" format="2">
  <advance width="582"/>
  <unicode hex="0024"/>
  <outline>
    <contour>
      <point x="172" y="-66" type="line"/>
      <point x="249" y="-66" type="line"/>
      <point x="266" y="16" type="line"/>
      <point x="427" y="16"/>
      <point x="536" y="107"/>
      <point x="536" y="244" type="curve" smooth="yes"/>
      <point x="536" y="316"/>
      <point x="485" y="378"/>
      <point x="404" y="405" type="curve" smooth="yes"/>
      <point x="353" y="422" type="line"/>
      <point x="378" y="541" type="line"/>
      <point x="418" y="529"/>
      <point x="456" y="505"/>
      <point x="492" y="471" type="curve"/>
      <point x="588" y="581" type="line"/>
      <point x="540" y="629"/>
      <point x="475" y="662"/>
      <point x="407" y="677" type="curve"/>
      <point x="426" y="768" type="line"/>
      <point x="349" y="768" type="line"/>
      <point x="331" y="685" type="line"/>
      <point x="170" y="685"/>
      <point x="72" y="604"/>
      <point x="72" y="471" type="curve" smooth="yes"/>
      <point x="72" y="396"/>
      <point x="121" y="336"/>
      <point x="202" y="311" type="curve" smooth="yes"/>
      <point x="249" y="297" type="line"/>
      <point x="220" y="158" type="line"/>
      <point x="177" y="168"/>
      <point x="136" y="189"/>
      <point x="84" y="226" type="curve"/>
      <point x="-4" y="108" type="line"/>
      <point x="56" y="62"/>
      <point x="121" y="34"/>
      <point x="191" y="22" type="curve"/>
    </contour>
    <contour>
      <point x="279" y="439" type="line"/>
      <point x="260" y="445" type="line" smooth="yes"/>
      <point x="232" y="453"/>
      <point x="216" y="471"/>
      <point x="216" y="493" type="curve" smooth="yes"/>
      <point x="216" y="528"/>
      <point x="249" y="551"/>
      <point x="303" y="552" type="curve"/>
    </contour>
    <contour>
      <point x="295" y="151" type="curve"/>
      <point x="322" y="279" type="line"/>
      <point x="341" y="272" type="line" smooth="yes"/>
      <point x="369" y="262"/>
      <point x="386" y="241"/>
      <point x="386" y="216" type="curve" smooth="yes"/>
      <point x="386" y="177"/>
      <point x="354" y="154"/>
    </contour>
  </outline>
</glyph>
<glyph name="ampersand" format="2">
  <advance width="682"/>
  <unicode hex="0026"/>
  <outline>
    <contour>
      <point x="631" y="97" type="line"/>
      <point x="608" y="114"/>
      <point x="584" y="134"/>
      <point x="559" y="157" type="curve"/>
      <point x="598" y="205"/>
      <point x="635" y="268"/>
      <point x="670" y="347" type="curve"/>
      <point x="540" y="381" type="line"/>
      <point x="516" y="327"/>
      <point x="492" y="282"/>
      <point x="467" y="247" type="curve"/>
      <point x="434" y="283"/>
      <point x="402" y="320"/>
      <point x="378" y="354" type="curve"/>
      <point x="433" y="381" type="line" smooth="yes"/>
      <point x="515" y="422"/>
      <point x="560" y="484"/>
      <point x="560" y="557" type="curve" smooth="yes"/>
      <point x="560" y="647"/>
      <point x="484" y="711"/>
      <point x="375" y="711" type="curve" smooth="yes"/>
      <point x="244" y="711"/>
      <point x="153" y="625"/>
      <point x="153" y="502" type="curve" smooth="yes"/>
      <point x="153" y="470"/>
      <point x="159" y="439"/>
      <point x="181" y="390" type="curve"/>
      <point x="73" y="341"/>
      <point x="14" y="265"/>
      <point x="14" y="172" type="curve" smooth="yes"/>
      <point x="14" y="59"/>
      <point x="106" y="-11"/>
      <point x="251" y="-11" type="curve" smooth="yes"/>
      <point x="323" y="-11"/>
      <point x="390" y="9"/>
      <point x="450" y="48" type="curve"/>
      <point x="475" y="25"/>
      <point x="500" y="3"/>
      <point x="524" y="-16" type="curve"/>
    </contour>
    <contour>
      <point x="297" y="525" type="curve" smooth="yes"/>
      <point x="297" y="565"/>
      <point x="322" y="593"/>
      <point x="360" y="593" type="curve" smooth="yes"/>
      <point x="394" y="593"/>
      <point x="416" y="572"/>
      <point x="416" y="540" type="curve" smooth="yes"/>
      <point x="416" y="512"/>
      <point x="396" y="485"/>
      <point x="361" y="467" type="curve" smooth="yes"/>
      <point x="319" y="447" type="line"/>
      <point x="304" y="476"/>
      <point x="297" y="501"/>
    </contour>
    <contour>
      <point x="163" y="192" type="curve" smooth="yes"/>
      <point x="163" y="232"/>
      <point x="186" y="263"/>
      <point x="239" y="292" type="curve"/>
      <point x="283" y="229"/>
      <point x="321" y="182"/>
      <point x="362" y="137" type="curve"/>
      <point x="331" y="121"/>
      <point x="302" y="114"/>
      <point x="270" y="114" type="curve" smooth="yes"/>
      <point x="205" y="114"/>
      <point x="163" y="144"/>
    </contour>
  </outline>
</glyph>
<glyph name="parenright" format="2">
  <advance width="421"/>
  <unicode hex="0029"/>
  <outline>
    <contour>
      <point x="215" y="712" type="curve"/>
      <point x="112" y="621" type="line"/>
      <point x="192" y="549"/>
      <point x="233" y="453"/>
      <point x="233" y="340" type="curve" smooth="yes"/>
      <point x="233" y="146"/>
      <point x="129" y="-25"/>
      <point x="-44" y="-114" type="curve"/>
      <point x="19" y="-220" type="line"/>
      <point x="235" y="-116"/>
      <point x="373" y="108"/>
      <point x="373" y="356" type="curve" smooth="yes"/>
      <point x="373" y="504"/>
      <point x="318" y="628"/>
    </contour>
  </outline>
</glyph>
<glyph name="hyphen" format="2">
  <advance width="460"/>
  <unicode hex="002D"/>
  <outline>
    <contour>
      <point x="41" y="219" type="line"/>
      <point x="402" y="219" type="line"/>
      <point x="430" y="354" type="line"/>
      <point x="69" y="354" type="line"/>
    </contour>
  </outline>
</glyph>
<glyph name="slash" format="2">
  <advance width="534"/>
  <unicode hex="002F"/>
  <outline>
    <contour>
      <point x="-153" y="-209" type="line"/>
      <point x="9" y="-209" type="line"/>
      <point x="596" y="700" type="line"/>
      <point x="435" y="700" type="line"/>
    </contour>
  </outline>
</glyph>
<glyph name="zero" format="2">
  <advance width="677"/>
  <unicode hex="0030"/>
  <outline>
    <contour>
      <point x="406" y="711" type="curve" smooth="yes"/>
      <point x="209" y="711"/>
      <point x="52" y="516"/>
      <point x="52" y="271" type="curve" smooth="yes"/>
      <point x="52" y="99"/>
      <point x="152" y="-11"/>
      <point x="309" y="-11" type="curve" smooth="yes"/>
      <point x="505" y="-11"/>
      <point x="662" y="186"/>
      <point x="662" y="430" type="curve" smooth="yes"/>
      <point x="662" y="602"/>
      <point x="562" y="711"/>
    </contour>
    <contour>
      <point x="391" y="575" type="curve" smooth="yes"/>
      <point x="466" y="575"/>
      <point x="511" y="516"/>
      <point x="511" y="419" type="curve" smooth="yes"/>
      <point x="511" y="258"/>
      <point x="427" y="125"/>
      <point x="324" y="125" type="curve" smooth="yes"/>
      <point x="249" y="125"/>
      <point x="203" y="185"/>
      <point x="203" y="282" type="curve" smooth="yes"/>
      <point x="203" y="443"/>
      <point x="288" y="575"/>
    </contour>
  </outline>
</glyph>
<glyph name="one" format="2">
  <advance width="378"/>
  <unicode hex="0031"/>
  <outline>
    <contour>
      <point x="111" y="0" type="line"/>
      <point x="262" y="0" type="line"/>
      <point x="411" y="700" type="line"/>
      <point x="316" y="700" type="line"/>
      <point x="107" y="619" type="line"/>
      <point x="78" y="483" type="line"/>
      <point x="225" y="540" type="line"/>
    </contour>
  </outline>
</glyph>
<glyph name="four" format="2">
  <advance width="706"/>
  <unicode hex="0034"/>
  <outline>
    <contour>
      <point x="370" y="0" type="line"/>
      <point x="528" y="0" type="line"/>
      <point x="561" y="155" type="line"/>
      <point x="647" y="155" type="line"/>
      <point x="676" y="290" type="line"/>
      <point x="590" y="290" type="line"/>
      <point x="677" y="700" type="line"/>
      <point x="492" y="700" type="line"/>
      <point x="44" y="286" type="line"/>
      <point x="16" y="155" type="line"/>
      <point x="403" y="155" type="line"/>
    </contour>
    <contour>
      <point x="231" y="290" type="line"/>
      <point x="481" y="520" type="line"/>
      <point x="432" y="290" type="line"/>
    </contour>
  </outline>
</glyph>
<glyph name="nine" format="2">
  <advance width="635"/>
  <unicode hex="0039"/>
  <outline>
    <contour>
      <point x="349" y="711" type="curve" smooth="yes"/>
      <point x="198" y="711"/>
      <point x="74" y="596"/>
      <point x="74" y="456" type="curve" smooth="yes"/>
      <point x="74" y="349"/>
      <point x="161" y="270"/>
      <point x="278" y="270" type="curve" smooth="yes"/>
      <point x="345" y="270"/>
      <point x="409" y="303"/>
      <point x="457" y="363" type="curve"/>
      <point x="435" y="223"/>
      <point x="346" y="124"/>
      <point x="243" y="124" type="curve" smooth="yes"/>
      <point x="192" y="124"/>
      <point x="148" y="143"/>
      <point x="106" y="183" type="curve"/>
      <point x="11" y="75" type="line"/>
      <point x="65" y="20"/>
      <point x="144" y="-11"/>
      <point x="231" y="-11" type="curve" smooth="yes"/>
      <point x="443" y="-11"/>
      <point x="610" y="182"/>
      <point x="610" y="426" type="curve" smooth="yes"/>
      <point x="610" y="601"/>
      <point x="509" y="711"/>
    </contour>
    <contour>
      <point x="338" y="578" type="curve" smooth="yes"/>
      <point x="412" y="578"/>
      <point x="459" y="524"/>
      <point x="462" y="437" type="curve"/>
      <point x="422" y="404"/>
      <point x="375" y="387"/>
      <point x="324" y="387" type="curve" smooth="yes"/>
      <point x="266" y="387"/>
      <point x="221" y="425"/>
      <point x="221" y="475" type="curve" smooth="yes"/>
      <point x="221" y="533"/>
      <point x="272" y="578"/>
    </contour>
  </outline>
</glyph>
<glyph name="greater" format="2">
  <advance width="600"/>
  <unicode hex="003E"/>
  <outline>
    <contour>
      <point x="251" y="652" type="line"/>
      <point x="151" y="561" type="line"/>
      <point x="355" y="353" type="line"/>
      <point x="56" y="140" type="line"/>
      <point x="120" y="43" type="line"/>
      <point x="542" y="348" type="line"/>
    </contour>
  </outline>
</glyph>
<glyph name="B" format="2">
  <advance width="715"/>
  <unicode hex="0042"/>
  <outline>
    <contour>
      <point x="21" y="0" type="line"/>
      <point x="398" y="0" type="line" smooth="yes"/>
      <point x="542" y="0"/>
      <point x="657" y="96"/>
      <point x="657" y="215" type="curve" smooth="yes"/>
      <point x="657" y="276"/>
      <point x="621" y="326"/>
      <point x="563" y="354" type="curve"/>
      <point x="639" y="389"/>
      <point x="691" y="456"/>
      <point x="691" y="534" type="curve" smooth="yes"/>
      <point x="691" y="633"/>
      <point x="609" y="700"/>
      <point x="487" y="700" type="curve" smooth="yes"/>
      <point x="170" y="700" type="line"/>
    </contour>
    <contour>
      <point x="278" y="419" type="line"/>
      <point x="309" y="563" type="line"/>
      <point x="449" y="563" type="line" smooth="yes"/>
      <point x="492" y="563"/>
      <point x="518" y="540"/>
      <point x="518" y="501" type="curve" smooth="yes"/>
      <point x="518" y="454"/>
      <point x="480" y="419"/>
      <point x="429" y="419" type="curve" smooth="yes"/>
    </contour>
    <contour>
      <point x="218" y="137" type="line"/>
      <point x="251" y="291" type="line"/>
      <point x="413" y="291" type="line" smooth="yes"/>
      <point x="460" y="291"/>
      <point x="488" y="266"/>
      <point x="488" y="225" type="curve" smooth="yes"/>
      <point x="488" y="174"/>
      <point x="448" y="137"/>
      <point x="393" y="137" type="curve" smooth="yes"/>
    </contour>
  </outline>
</glyph>
<glyph name="L" format="2">
  <advance width="637"/>
  <unicode hex="004C"/>
  <guideline x="254" y="700" angle="0.0" color="0.999,0.001,0.001,0.999" identifier="5kBixRxNqq"/>
  <anchor x="253" y="700" name="top"/>
  <anchor x="297" y="0" name="bottom"/>
  <outline>
    <contour>
      <point x="21" y="0" type="line"/>
      <point x="529" y="0" type="line"/>
      <point x="561" y="147" type="line"/>
      <point x="220" y="147" type="line"/>
      <point x="338" y="700" type="line"/>
      <point x="170" y="700" type="line"/>
    </contour>
  </outline>
</glyph>
<glyph name="M" format="2">
  <advance width="907"/>
  <unicode hex="004D"/>
  <outline>
    <contour>
      <point x="21" y="0" type="line"/>
      <point x="180" y="0" type="line"/>
      <point x="281" y="481" type="line"/>
      <point x="413" y="50" type="line"/>
      <point x="719" y="472" type="line"/>
      <point x="619" y="0" type="line"/>
      <point x="774" y="0" type="line"/>
      <point x="923" y="700" type="line"/>
      <point x="706" y="700" type="line"/>
      <point x="472" y="364" type="line"/>
      <point x="376" y="700" type="line"/>
      <point x="170" y="700" type="line"/>
    </contour>
  </outline>
</glyph>
<glyph name="N" format="2">
  <advance width="773"/>
  <unicode hex="004E"/>
  <anchor x="472" y="700" name="top"/>
  <anchor x="323" y="0" name="bottom"/>
  <outline>
    <contour>
      <point x="21" y="0" type="line"/>
      <point x="180" y="0" type="line"/>
      <point x="270" y="454" type="line"/>
      <point x="491" y="0" type="line"/>
      <point x="640" y="0" type="line"/>
      <point x="789" y="700" type="line"/>
      <point x="630" y="700" type="line"/>
      <point x="544" y="261" type="line"/>
      <point x="329" y="700" type="line"/>
      <point x="170" y="700" type="line"/>
    </contour>
  </outline>
</glyph>
<glyph name="O" format="2">
  <advance width="797"/>
  <unicode hex="004F"/>
  <anchor x="460" y="700" name="top"/>
  <outline>
    <contour>
      <point x="392" y="-11" type="curve" smooth="yes"/>
      <point x="601" y="-11"/>
      <point x="772" y="165"/>
      <point x="772" y="380" type="curve" smooth="yes"/>
      <point x="772" y="570"/>
      <point x="632" y="711"/>
      <point x="444" y="711" type="curve" smooth="yes"/>
      <point x="235" y="711"/>
      <point x="63" y="535"/>
      <point x="63" y="320" type="curve" smooth="yes"/>
      <point x="63" y="130"/>
      <point x="204" y="-11"/>
    </contour>
    <contour>
      <point x="403" y="142" type="curve" smooth="yes"/>
      <point x="307" y="142"/>
      <point x="237" y="221"/>
      <point x="237" y="331" type="curve" smooth="yes"/>
      <point x="237" y="457"/>
      <point x="324" y="558"/>
      <point x="433" y="558" type="curve" smooth="yes"/>
      <point x="529" y="558"/>
      <point x="599" y="479"/>
      <point x="599" y="369" type="curve" smooth="yes"/>
      <point x="599" y="243"/>
      <point x="512" y="142"/>
    </contour>
  </outline>
</glyph>
<glyph name="R" format="2">
  <advance width="689"/>
  <unicode hex="0052"/>
  <anchor x="428" y="700" name="top"/>
  <anchor x="293" y="0" name="bottom"/>
  <outline>
    <contour>
      <point x="21" y="0" type="line"/>
      <point x="189" y="0" type="line"/>
      <point x="244" y="259" type="line"/>
      <point x="359" y="259" type="line"/>
      <point x="444" y="0" type="line"/>
      <point x="622" y="0" type="line"/>
      <point x="521" y="271" type="line"/>
      <point x="625" y="302"/>
      <point x="699" y="391"/>
      <point x="699" y="497" type="curve" smooth="yes"/>
      <point x="699" y="617"/>
      <point x="609" y="700"/>
      <point x="478" y="700" type="curve" smooth="yes"/>
      <point x="170" y="700" type="line"/>
    </contour>
    <contour>
      <point x="273" y="394" type="line"/>
      <point x="308" y="558" type="line"/>
      <point x="448" y="558" type="line" smooth="yes"/>
      <point x="496" y="558"/>
      <point x="527" y="529"/>
      <point x="527" y="482" type="curve" smooth="yes"/>
      <point x="527" y="431"/>
      <point x="486" y="394"/>
      <point x="431" y="394" type="curve" smooth="yes"/>
    </contour>
  </outline>
</glyph>
<glyph name="U" format="2">
  <advance width="734"/>
  <unicode hex="0055"/>
  <anchor x="447" y="700" name="top"/>
  <anchor x="418" y="0" name="bottom"/>
  <outline>
    <contour>
      <point x="341" y="-11" type="curve" smooth="yes"/>
      <point x="511" y="-11"/>
      <point x="635" y="95"/>
      <point x="672" y="270" type="curve" smooth="yes"/>
      <point x="764" y="700" type="line"/>
      <point x="596" y="700" type="line"/>
      <point x="508" y="287" type="line" smooth="yes"/>
      <point x="489" y="200"/>
      <point x="427" y="142"/>
      <point x="353" y="142" type="curve" smooth="yes"/>
      <point x="264" y="142"/>
      <point x="220" y="211"/>
      <point x="243" y="317" type="curve" smooth="yes"/>
      <point x="325" y="700" type="line"/>
      <point x="156" y="700" type="line"/>
      <point x="78" y="335" type="line" smooth="yes"/>
      <point x="34" y="129"/>
      <point x="140" y="-11"/>
    </contour>
  </outline>
</glyph>
<glyph name="V" format="2">
  <advance width="727"/>
  <unicode hex="0056"/>
  <outline>
    <contour>
      <point x="213" y="0" type="line"/>
      <point x="406" y="0" type="line"/>
      <point x="818" y="700" type="line"/>
      <point x="635" y="700" type="line"/>
      <point x="345" y="179" type="line"/>
      <point x="270" y="700" type="line"/>
      <point x="95" y="700" type="line"/>
    </contour>
  </outline>
</glyph>
<glyph name="X" format="2">
  <advance width="742"/>
  <unicode hex="0058"/>
  <outline>
    <contour>
      <point x="-46" y="0" type="line"/>
      <point x="157" y="0" type="line"/>
      <point x="367" y="233" type="line"/>
      <point x="484" y="0" type="line"/>
      <point x="674" y="0" type="line"/>
      <point x="487" y="354" type="line"/>
      <point x="814" y="700" type="line"/>
      <point x="610" y="700" type="line"/>
      <point x="417" y="486" type="line"/>
      <point x="309" y="700" type="line"/>
      <point x="119" y="700" type="line"/>
      <point x="297" y="363" type="line"/>
    </contour>
  </outline>
</glyph>
<glyph name="Y" format="2">
  <advance width="724"/>
  <unicode hex="0059"/>
  <anchor x="440" y="700" name="top"/>
  <outline>
    <contour>
      <point x="221" y="0" type="line"/>
      <point x="390" y="0" type="line"/>
      <point x="446" y="266" type="line"/>
      <point x="818" y="700" type="line"/>
      <point x="620" y="700" type="line"/>
      <point x="386" y="414" type="line"/>
      <point x="271" y="700" type="line"/>
      <point x="92" y="700" type="line"/>
      <point x="277" y="265" type="line"/>
    </contour>
  </outline>
</glyph>
<glyph name="backslash" format="2">
  <advance width="523"/>
  <unicode hex="005C"/>
  <outline>
    <contour>
      <point x="324" y="-209" type="line"/>
      <point x="473" y="-209" type="line"/>
      <point x="273" y="700" type="line"/>
      <point x="124" y="700" type="line"/>
    </contour>
  </outline>
</glyph>
<glyph name="bracketright" format="2">
  <advance width="414"/>
  <unicode hex="005D"/>
  <outline>
    <contour>
      <point x="440" y="700" type="line"/>
      <point x="143" y="700" type="line"/>
      <point x="116" y="574" type="line"/>
      <point x="270" y="574" type="line"/>
      <point x="129" y="-89" type="line"/>
      <point x="-25" y="-89" type="line"/>
      <point x="-52" y="-215" type="line"/>
      <point x="245" y="-215" type="line"/>
    </contour>
  </outline>
</glyph>
<glyph name="b" format="2">
  <advance width="631"/>
  <unicode hex="0062"/>
  <outline>
    <contour>
      <point x="330" y="-3" type="curve" smooth="yes"/>
      <point x="474" y="-3"/>
      <point x="591" y="125"/>
      <point x="591" y="283" type="curve" smooth="yes"/>
      <point x="591" y="415"/>
      <point x="506" y="519"/>
      <point x="397" y="519" type="curve" smooth="yes"/>
      <point x="346" y="519"/>
      <point x="298" y="499"/>
      <point x="263" y="465" type="curve"/>
      <point x="321" y="737" type="line"/>
      <point x="158" y="712" type="line"/>
      <point x="6" y="0" type="line"/>
      <point x="163" y="0" type="line"/>
      <point x="181" y="84" type="line"/>
      <point x="213" y="27"/>
      <point x="265" y="-3"/>
    </contour>
    <contour>
      <point x="305" y="131" type="curve" smooth="yes"/>
      <point x="263" y="131"/>
      <point x="226" y="151"/>
      <point x="204" y="182" type="curve"/>
      <point x="239" y="349" type="line"/>
      <point x="265" y="374"/>
      <point x="293" y="386"/>
      <point x="327" y="386" type="curve" smooth="yes"/>
      <point x="390" y="386"/>
      <point x="436" y="338"/>
      <point x="436" y="270" type="curve" smooth="yes"/>
      <point x="436" y="191"/>
      <point x="380" y="131"/>
    </contour>
  </outline>
</glyph>
<glyph name="f" format="2">
  <advance width="451"/>
  <unicode hex="0066"/>
  <outline>
    <contour>
      <point x="80" y="0" type="line"/>
      <point x="239" y="0" type="line"/>
      <point x="319" y="391" type="line"/>
      <point x="450" y="391" type="line"/>
      <point x="478" y="516" type="line"/>
      <point x="345" y="516" type="line"/>
      <point x="359" y="584" type="line" smooth="yes"/>
      <point x="366" y="618"/>
      <point x="388" y="635"/>
      <point x="427" y="635" type="curve" smooth="yes"/>
      <point x="449" y="635"/>
      <point x="472" y="631"/>
      <point x="495" y="624" type="curve"/>
      <point x="523" y="757" type="line"/>
      <point x="501" y="767"/>
      <point x="454" y="774"/>
      <point x="417" y="774" type="curve" smooth="yes"/>
      <point x="303" y="774"/>
      <point x="227" y="712"/>
      <point x="202" y="599" type="curve" smooth="yes"/>
      <point x="185" y="516" type="line"/>
      <point x="88" y="516" type="line"/>
      <point x="60" y="391" type="line"/>
      <point x="160" y="391" type="line"/>
    </contour>
  </outline>
</glyph>
<glyph name="j" format="2">
  <advance width="283"/>
  <unicode hex="006A"/>
  <outline>
    <contour>
      <point x="217" y="596" type="curve" smooth="yes"/>
      <point x="272" y="596"/>
      <point x="318" y="642"/>
      <point x="318" y="697" type="curve" smooth="yes"/>
      <point x="318" y="742"/>
      <point x="282" y="777"/>
      <point x="237" y="777" type="curve" smooth="yes"/>
      <point x="184" y="777"/>
      <point x="137" y="729"/>
      <point x="137" y="675" type="curve" smooth="yes"/>
      <point x="137" y="630"/>
      <point x="171" y="596"/>
    </contour>
    <contour>
      <point x="-40" y="-219" type="curve" smooth="yes"/>
      <point x="61" y="-219"/>
      <point x="130" y="-163"/>
      <point x="152" y="-63" type="curve" smooth="yes"/>
      <point x="278" y="516" type="line"/>
      <point x="118" y="516" type="line"/>
      <point x="-4" y="-48" type="line" smooth="yes"/>
      <point x="-10" y="-75"/>
      <point x="-26" y="-88"/>
      <point x="-54" y="-88" type="curve" smooth="yes"/>
      <point x="-77" y="-88"/>
      <point x="-91" y="-86"/>
      <point x="-106" y="-82" type="curve"/>
      <point x="-132" y="-204" type="line"/>
      <point x="-113" y="-212"/>
      <point x="-71" y="-219"/>
    </contour>
  </outline>
</glyph>
<glyph name="m" format="2">
  <advance width="895"/>
  <unicode hex="006D"/>
  <outline>
    <contour>
      <point x="6" y="0" type="line"/>
      <point x="165" y="0" type="line"/>
      <point x="242" y="356" type="line"/>
      <point x="270" y="385"/>
      <point x="292" y="397"/>
      <point x="318" y="397" type="curve" smooth="yes"/>
      <point x="366" y="397"/>
      <point x="389" y="362"/>
      <point x="378" y="307" type="curve" smooth="yes"/>
      <point x="314" y="0" type="line"/>
      <point x="473" y="0" type="line"/>
      <point x="543" y="332" type="line" smooth="yes"/>
      <point x="544" y="339"/>
      <point x="546" y="345"/>
      <point x="546" y="351" type="curve"/>
      <point x="575" y="384"/>
      <point x="599" y="397"/>
      <point x="626" y="397" type="curve" smooth="yes"/>
      <point x="673" y="397"/>
      <point x="697" y="360"/>
      <point x="686" y="307" type="curve" smooth="yes"/>
      <point x="622" y="0" type="line"/>
      <point x="781" y="0" type="line"/>
      <point x="851" y="332" type="line" smooth="yes"/>
      <point x="874" y="442"/>
      <point x="824" y="522"/>
      <point x="731" y="522" type="curve" smooth="yes"/>
      <point x="662" y="522"/>
      <point x="598" y="484"/>
      <point x="546" y="413" type="curve"/>
      <point x="535" y="479"/>
      <point x="488" y="522"/>
      <point x="420" y="522" type="curve" smooth="yes"/>
      <point x="361" y="522"/>
      <point x="306" y="488"/>
      <point x="256" y="421" type="curve"/>
      <point x="277" y="516" type="line"/>
      <point x="118" y="516" type="line"/>
    </contour>
  </outline>
</glyph>
<glyph name="n" format="2">
  <advance width="606"/>
  <unicode hex="006E"/>
  <anchor x="356" y="516" name="top"/>
  <anchor x="244" y="0" name="bottom"/>
  <outline>
    <contour>
      <point x="6" y="0" type="line"/>
      <point x="165" y="0" type="line"/>
      <point x="243" y="358" type="line"/>
      <point x="270" y="385"/>
      <point x="297" y="397"/>
      <point x="328" y="397" type="curve" smooth="yes"/>
      <point x="382" y="397"/>
      <point x="410" y="356"/>
      <point x="397" y="297" type="curve" smooth="yes"/>
      <point x="333" y="0" type="line"/>
      <point x="492" y="0" type="line"/>
      <point x="564" y="337" type="line" smooth="yes"/>
      <point x="588" y="447"/>
      <point x="533" y="522"/>
      <point x="429" y="522" type="curve" smooth="yes"/>
      <point x="366" y="522"/>
      <point x="308" y="492"/>
      <point x="260" y="436" type="curve"/>
      <point x="277" y="516" type="line"/>
      <point x="118" y="516" type="line"/>
    </contour>
  </outline>
</glyph>
<glyph name="o" format="2">
  <advance width="610"/>
  <unicode hex="006F"/>
  <anchor x="331" y="516" name="top"/>
  <outline>
    <contour>
      <point x="282" y="-10" type="curve" smooth="yes"/>
      <point x="440" y="-10"/>
      <point x="570" y="123"/>
      <point x="570" y="284" type="curve" smooth="yes"/>
      <point x="570" y="424"/>
      <point x="468" y="525"/>
      <point x="328" y="525" type="curve" smooth="yes"/>
      <point x="168" y="525"/>
      <point x="40" y="394"/>
      <point x="40" y="231" type="curve" smooth="yes"/>
      <point x="40" y="92"/>
      <point x="143" y="-10"/>
    </contour>
    <contour>
      <point x="291" y="127" type="curve" smooth="yes"/>
      <point x="233" y="127"/>
      <point x="196" y="170"/>
      <point x="196" y="239" type="curve" smooth="yes"/>
      <point x="196" y="324"/>
      <point x="250" y="390"/>
      <point x="318" y="390" type="curve" smooth="yes"/>
      <point x="377" y="390"/>
      <point x="414" y="348"/>
      <point x="414" y="280" type="curve" smooth="yes"/>
      <point x="414" y="192"/>
      <point x="362" y="127"/>
    </contour>
  </outline>
</glyph>
<glyph name="p" format="2">
  <advance width="631"/>
  <unicode hex="0070"/>
  <outline>
    <contour>
      <point x="-40" y="-209" type="line"/>
      <point x="119" y="-209" type="line"/>
      <point x="183" y="78" type="line"/>
      <point x="214" y="25"/>
      <point x="265" y="-3"/>
      <point x="330" y="-3" type="curve" smooth="yes"/>
      <point x="474" y="-3"/>
      <point x="591" y="125"/>
      <point x="591" y="283" type="curve" smooth="yes"/>
      <point x="591" y="415"/>
      <point x="506" y="519"/>
      <point x="397" y="519" type="curve" smooth="yes"/>
      <point x="347" y="519"/>
      <point x="300" y="499"/>
      <point x="265" y="464" type="curve"/>
      <point x="275" y="516" type="line"/>
      <point x="118" y="516" type="line"/>
    </contour>
    <contour>
      <point x="327" y="386" type="curve" smooth="yes"/>
      <point x="390" y="386"/>
      <point x="436" y="338"/>
      <point x="436" y="270" type="curve" smooth="yes"/>
      <point x="436" y="191"/>
      <point x="380" y="131"/>
      <point x="305" y="131" type="curve" smooth="yes"/>
      <point x="264" y="131"/>
      <point x="227" y="150"/>
      <point x="205" y="180" type="curve"/>
      <point x="242" y="352" type="line"/>
      <point x="268" y="375"/>
      <point x="295" y="386"/>
    </contour>
  </outline>
</glyph>
<glyph name="q" format="2">
  <advance width="630"/>
  <unicode hex="0071"/>
  <outline>
    <contour>
      <point x="308" y="-209" type="line"/>
      <point x="467" y="-209" type="line"/>
      <point x="624" y="516" type="line"/>
      <point x="467" y="516" type="line"/>
      <point x="451" y="438" type="line"/>
      <point x="419" y="491"/>
      <point x="367" y="519"/>
      <point x="302" y="519" type="curve" smooth="yes"/>
      <point x="158" y="519"/>
      <point x="41" y="391"/>
      <point x="41" y="233" type="curve" smooth="yes"/>
      <point x="41" y="101"/>
      <point x="126" y="-3"/>
      <point x="235" y="-3" type="curve" smooth="yes"/>
      <point x="284" y="-3"/>
      <point x="330" y="16"/>
      <point x="364" y="47" type="curve"/>
    </contour>
    <contour>
      <point x="305" y="130" type="curve" smooth="yes"/>
      <point x="242" y="130"/>
      <point x="197" y="179"/>
      <point x="197" y="246" type="curve" smooth="yes"/>
      <point x="197" y="325"/>
      <point x="253" y="385"/>
      <point x="327" y="385" type="curve" smooth="yes"/>
      <point x="368" y="385"/>
      <point x="404" y="368"/>
      <point x="428" y="340" type="curve"/>
      <point x="390" y="164" type="line"/>
      <point x="364" y="141"/>
      <point x="337" y="130"/>
    </contour>
  </outline>
</glyph>
<glyph name="s" format="2">
  <advance width="505"/>
  <unicode hex="0073"/>
  <note>
Version created Fri Aug  3 17:49:29 2018
</note>
  <anchor x="262" y="516" name="top"/>
  <anchor x="220" y="0" name="bottom"/>
  <outline>
    <contour>
      <point x="236" y="-11" type="curve" smooth="yes"/>
      <point x="360" y="-11"/>
      <point x="453" y="69"/>
      <point x="453" y="176" type="curve" smooth="yes"/>
      <point x="453" y="241"/>
      <point x="407" y="289"/>
      <point x="325" y="310" type="curve" smooth="yes"/>
      <point x="232" y="334" type="line" smooth="yes"/>
      <point x="199" y="343"/>
      <point x="188" y="352"/>
      <point x="188" y="371" type="curve" smooth="yes"/>
      <point x="188" y="395"/>
      <point x="208" y="408"/>
      <point x="246" y="408" type="curve" smooth="yes"/>
      <point x="290" y="408"/>
      <point x="341" y="389"/>
      <point x="391" y="353" type="curve"/>
      <point x="476" y="450" type="line"/>
      <point x="413" y="499"/>
      <point x="337" y="525"/>
      <point x="255" y="525" type="curve" smooth="yes"/>
      <point x="125" y="525"/>
      <point x="48" y="459"/>
      <point x="48" y="348" type="curve" smooth="yes"/>
      <point x="48" y="281"/>
      <point x="91" y="233"/>
      <point x="170" y="211" type="curve" smooth="yes"/>
      <point x="265" y="187" type="line" smooth="yes"/>
      <point x="293" y="180"/>
      <point x="305" y="169"/>
      <point x="305" y="151" type="curve" smooth="yes"/>
      <point x="305" y="126"/>
      <point x="278" y="108"/>
      <point x="240" y="108" type="curve" smooth="yes"/>
      <point x="191" y="108"/>
      <point x="145" y="126"/>
      <point x="75" y="173" type="curve"/>
      <point x="-9" y="70" type="line"/>
      <point x="48" y="20"/>
      <point x="140" y="-11"/>
    </contour>
  </outline>
</glyph>
<glyph name="u" format="2">
  <advance width="606"/>
  <unicode hex="0075"/>
  <anchor x="340" y="516" name="top"/>
  <anchor x="488" y="0" name="bottom"/>
  <outline>
    <contour>
      <point x="177" y="-6" type="curve" smooth="yes"/>
      <point x="240" y="-6"/>
      <point x="298" y="24"/>
      <point x="346" y="80" type="curve"/>
      <point x="329" y="0" type="line"/>
      <point x="488" y="0" type="line"/>
      <point x="600" y="516" type="line"/>
      <point x="441" y="516" type="line"/>
      <point x="363" y="158" type="line"/>
      <point x="336" y="131"/>
      <point x="309" y="119"/>
      <point x="278" y="119" type="curve" smooth="yes"/>
      <point x="224" y="119"/>
      <point x="196" y="160"/>
      <point x="209" y="219" type="curve" smooth="yes"/>
      <point x="273" y="516" type="line"/>
      <point x="114" y="516" type="line"/>
      <point x="42" y="179" type="line" smooth="yes"/>
      <point x="19" y="72"/>
      <point x="75" y="-6"/>
    </contour>
  </outline>
</glyph>
<glyph name="y" format="2">
  <advance width="572"/>
  <unicode hex="0079"/>
  <anchor x="337" y="516" name="top"/>
  <outline>
    <contour>
      <point x="39" y="-219" type="curve" smooth="yes"/>
      <point x="137" y="-219"/>
      <point x="211" y="-172"/>
      <point x="271" y="-72" type="curve" smooth="yes"/>
      <point x="624" y="516" type="line"/>
      <point x="451" y="516" type="line"/>
      <point x="255" y="169" type="line"/>
      <point x="222" y="516" type="line"/>
      <point x="58" y="516" type="line"/>
      <point x="132" y="-9" type="line"/>
      <point x="120" y="-31" type="line" smooth="yes"/>
      <point x="102" y="-64"/>
      <point x="74" y="-77"/>
      <point x="28" y="-77" type="curve" smooth="yes"/>
      <point x="15" y="-77"/>
      <point x="-4" y="-75"/>
      <point x="-21" y="-71" type="curve"/>
      <point x="-50" y="-206" type="line"/>
      <point x="-16" y="-215"/>
      <point x="12" y="-219"/>
    </contour>
  </outline>
</glyph>
<glyph name="z" format="2">
  <advance width="500"/>
  <unicode hex="007A"/>
  <anchor x="294" y="516" name="top"/>
  <outline>
    <contour>
      <point x="-20" y="0" type="line"/>
      <point x="408" y="0" type="line"/>
      <point x="437" y="135" type="line"/>
      <point x="210" y="133" type="line"/>
      <point x="488" y="403" type="line"/>
      <point x="512" y="516" type="line"/>
      <point x="93" y="516" type="line"/>
      <point x="65" y="380" type="line"/>
      <point x="281" y="382" type="line"/>
      <point x="4" y="113" type="line"/>
    </contour>
  </outline>
</glyph>
<glyph name="braceleft" format="2">
  <advance width="447"/>
  <unicode hex="007B"/>
  <outline>
    <contour>
      <point x="208" y="-220" type="curve" smooth="yes"/>
      <point x="239" y="-220"/>
      <point x="267" y="-216"/>
      <point x="296" y="-208" type="curve"/>
      <point x="299" y="-92" type="line"/>
      <point x="284" y="-97"/>
      <point x="268" y="-100"/>
      <point x="253" y="-100" type="curve" smooth="yes"/>
      <point x="199" y="-100"/>
      <point x="182" y="-61"/>
      <point x="214" y="-7" type="curve" smooth="yes"/>
      <point x="261" y="74" type="line" smooth="yes"/>
      <point x="306" y="149"/>
      <point x="277" y="218"/>
      <point x="194" y="240" type="curve"/>
      <point x="276" y="254"/>
      <point x="330" y="318"/>
      <point x="323" y="396" type="curve" smooth="yes"/>
      <point x="312" y="502" type="line" smooth="yes"/>
      <point x="307" y="554"/>
      <point x="335" y="589"/>
      <point x="382" y="589" type="curve" smooth="yes"/>
      <point x="397" y="589"/>
      <point x="424" y="582"/>
      <point x="440" y="574" type="curve"/>
      <point x="485" y="688" type="line"/>
      <point x="451" y="704"/>
      <point x="417" y="711"/>
      <point x="372" y="711" type="curve" smooth="yes"/>
      <point x="250" y="711"/>
      <point x="170" y="625"/>
      <point x="184" y="509" type="curve" smooth="yes"/>
      <point x="196" y="407" type="line" smooth="yes"/>
      <point x="203" y="347"/>
      <point x="168" y="304"/>
      <point x="112" y="304" type="curve" smooth="yes"/>
      <point x="32" y="304" type="line"/>
      <point x="7" y="186" type="line"/>
      <point x="87" y="186" type="line" smooth="yes"/>
      <point x="145" y="186"/>
      <point x="163" y="136"/>
      <point x="127" y="78" type="curve" smooth="yes"/>
      <point x="80" y="1" type="line" smooth="yes"/>
      <point x="7" y="-118"/>
      <point x="66" y="-220"/>
    </contour>
  </outline>
</glyph>
<glyph name="bar" format="2">
  <advance width="351"/>
  <unicode hex="007C"/>
  <outline>
    <contour>
      <point x="4" y="-209" type="line"/>
      <point x="145" y="-209" type="line"/>
      <point x="339" y="700" type="line"/>
      <point x="198" y="700" type="line"/>
    </contour>
  </outline>
</glyph>
<glyph name="braceright" format="2">
  <advance width="447"/>
  <unicode hex="007D"/>
  <outline>
    <contour>
      <point x="230" y="707" type="curve" smooth="yes"/>
      <point x="199" y="707"/>
      <point x="171" y="703"/>
      <point x="142" y="695" type="curve"/>
      <point x="139" y="579" type="line"/>
      <point x="154" y="584"/>
      <point x="170" y="587"/>
      <point x="185" y="587" type="curve" smooth="yes"/>
      <point x="239" y="587"/>
      <point x="256" y="548"/>
      <point x="224" y="494" type="curve" smooth="yes"/>
      <point x="177" y="413" type="line" smooth="yes"/>
      <point x="129" y="333"/>
      <point x="165" y="260"/>
      <point x="261" y="243" type="curve"/>
      <point x="262" y="249" type="line"/>
      <point x="170" y="242"/>
      <point x="107" y="175"/>
      <point x="115" y="91" type="curve" smooth="yes"/>
      <point x="126" y="-15" type="line" smooth="yes"/>
      <point x="131" y="-67"/>
      <point x="103" y="-102"/>
      <point x="56" y="-102" type="curve" smooth="yes"/>
      <point x="41" y="-102"/>
      <point x="14" y="-95"/>
      <point x="-2" y="-87" type="curve"/>
      <point x="-47" y="-201" type="line"/>
      <point x="-13" y="-217"/>
      <point x="21" y="-224"/>
      <point x="66" y="-224" type="curve" smooth="yes"/>
      <point x="188" y="-224"/>
      <point x="268" y="-138"/>
      <point x="254" y="-22" type="curve" smooth="yes"/>
      <point x="242" y="80" type="line" smooth="yes"/>
      <point x="235" y="140"/>
      <point x="270" y="183"/>
      <point x="326" y="183" type="curve" smooth="yes"/>
      <point x="406" y="183" type="line"/>
      <point x="431" y="301" type="line"/>
      <point x="351" y="301" type="line" smooth="yes"/>
      <point x="293" y="301"/>
      <point x="275" y="351"/>
      <point x="311" y="409" type="curve" smooth="yes"/>
      <point x="358" y="486" type="line" smooth="yes"/>
      <point x="431" y="605"/>
      <point x="372" y="707"/>
    </contour>
  </outline>
</glyph>
<glyph name="cent" format="2">
  <advance width="529"/>
  <unicode hex="00A2"/>
  <outline>
    <contour>
      <point x="190" y="-110" type="line"/>
      <point x="257" y="-110" type="line"/>
      <point x="278" y="-11" type="line"/>
      <point x="351" y="-11"/>
      <point x="423" y="18"/>
      <point x="476" y="71" type="curve"/>
      <point x="398" y="172" type="line"/>
      <point x="372" y="145"/>
      <point x="342" y="131"/>
      <point x="308" y="129" type="curve"/>
      <point x="361" y="380" type="line"/>
      <point x="387" y="371"/>
      <point x="408" y="353"/>
      <point x="424" y="324" type="curve"/>
      <point x="536" y="416" type="line"/>
      <point x="504" y="468"/>
      <point x="452" y="503"/>
      <point x="390" y="518" type="curve"/>
      <point x="413" y="625" type="line"/>
      <point x="346" y="625" type="line"/>
      <point x="325" y="526" type="line"/>
      <point x="166" y="526"/>
      <point x="38" y="395"/>
      <point x="38" y="226" type="curve" smooth="yes"/>
      <point x="38" y="111"/>
      <point x="109" y="22"/>
      <point x="213" y="-4" type="curve"/>
    </contour>
    <contour>
      <point x="244" y="143" type="line"/>
      <point x="213" y="161"/>
      <point x="196" y="194"/>
      <point x="196" y="240" type="curve" smooth="yes"/>
      <point x="196" y="312"/>
      <point x="238" y="372"/>
      <point x="295" y="384" type="curve"/>
    </contour>
  </outline>
</glyph>
<glyph name="sterling" format="2">
  <advance width="656"/>
  <unicode hex="00A3"/>
  <outline>
    <contour>
      <point x="81" y="-23" type="line"/>
      <point x="122" y="30"/>
      <point x="161" y="45"/>
      <point x="211" y="28" type="curve" smooth="yes"/>
      <point x="333" y="-17" type="line" smooth="yes"/>
      <point x="446" y="-57"/>
      <point x="529" y="-31"/>
      <point x="607" y="70" type="curve"/>
      <point x="505" y="149" type="line"/>
      <point x="465" y="98"/>
      <point x="426" y="84"/>
      <point x="377" y="103" type="curve" smooth="yes"/>
      <point x="272" y="142" type="line" smooth="yes"/>
      <point x="268" y="143"/>
      <point x="265" y="145"/>
      <point x="261" y="146" type="curve"/>
      <point x="294" y="174"/>
      <point x="311" y="214"/>
      <point x="310" y="265" type="curve" smooth="yes"/>
      <point x="310" y="275" type="line"/>
      <point x="452" y="275" type="line"/>
      <point x="474" y="377" type="line"/>
      <point x="309" y="377" type="line"/>
      <point x="308" y="454" type="line" smooth="yes"/>
      <point x="307" y="530"/>
      <point x="347" y="580"/>
      <point x="412" y="580" type="curve" smooth="yes"/>
      <point x="476" y="580"/>
      <point x="512" y="547"/>
      <point x="524" y="476" type="curve"/>
      <point x="664" y="513" type="line"/>
      <point x="640" y="642"/>
      <point x="553" y="711"/>
      <point x="415" y="711" type="curve" smooth="yes"/>
      <point x="266" y="711"/>
      <point x="159" y="596"/>
      <point x="160" y="444" type="curve" smooth="yes"/>
      <point x="160" y="377" type="line"/>
      <point x="86" y="377" type="line"/>
      <point x="64" y="275" type="line"/>
      <point x="161" y="275" type="line"/>
      <point x="161" y="218" type="line" smooth="yes"/>
      <point x="161" y="197"/>
      <point x="154" y="180"/>
      <point x="140" y="166" type="curve"/>
      <point x="78" y="161"/>
      <point x="25" y="127"/>
      <point x="-23" y="63" type="curve"/>
    </contour>
  </outline>
</glyph>
<glyph name="dieresis" format="2">
  <advance width="600"/>
  <unicode hex="00A8"/>
  <outline>
    <contour>
      <point x="263" y="602" type="curve" smooth="yes"/>
      <point x="309" y="602"/>
      <point x="351" y="645"/>
      <point x="351" y="694" type="curve" smooth="yes"/>
      <point x="351" y="735"/>
      <point x="321" y="766"/>
      <point x="283" y="766" type="curve" smooth="yes"/>
      <point x="235" y="766"/>
      <point x="193" y="724"/>
      <point x="193" y="674" type="curve" smooth="yes"/>
      <point x="193" y="633"/>
      <point x="223" y="602"/>
    </contour>
    <contour>
      <point x="489" y="602" type="curve" smooth="yes"/>
      <point x="536" y="602"/>
      <point x="577" y="645"/>
      <point x="577" y="694" type="curve" smooth="yes"/>
      <point x="577" y="735"/>
      <point x="548" y="766"/>
      <point x="509" y="766" type="curve" smooth="yes"/>
      <point x="461" y="766"/>
      <point x="419" y="723"/>
      <point x="419" y="674" type="curve" smooth="yes"/>
      <point x="419" y="633"/>
      <point x="450" y="602"/>
    </contour>
  </outline>
</glyph>
<glyph name="copyright" format="2">
  <advance width="787"/>
  <unicode hex="00A9"/>
  <outline>
    <contour>
      <point x="390" y="159" type="curve" smooth="yes"/>
      <point x="447" y="159"/>
      <point x="502" y="181"/>
      <point x="542" y="219" type="curve"/>
      <point x="486" y="304" type="line"/>
      <point x="460" y="280"/>
      <point x="437" y="269"/>
      <point x="412" y="269" type="curve" smooth="yes"/>
      <point x="374" y="269"/>
      <point x="348" y="296"/>
      <point x="348" y="334" type="curve" smooth="yes"/>
      <point x="348" y="387"/>
      <point x="388" y="432"/>
      <point x="435" y="432" type="curve" smooth="yes"/>
      <point x="465" y="432"/>
      <point x="484" y="419"/>
      <point x="506" y="387" type="curve"/>
      <point x="597" y="462" type="line"/>
      <point x="564" y="517"/>
      <point x="507" y="545"/>
      <point x="445" y="545" type="curve" smooth="yes"/>
      <point x="327" y="545"/>
      <point x="221" y="452"/>
      <point x="221" y="326" type="curve" smooth="yes"/>
      <point x="221" y="230"/>
      <point x="292" y="159"/>
    </contour>
    <contour>
      <point x="368" y="-11" type="curve" smooth="yes"/>
      <point x="582" y="-11"/>
      <point x="764" y="177"/>
      <point x="764" y="398" type="curve" smooth="yes"/>
      <point x="764" y="578"/>
      <point x="631" y="713"/>
      <point x="452" y="713" type="curve" smooth="yes"/>
      <point x="238" y="713"/>
      <point x="57" y="525"/>
      <point x="57" y="303" type="curve" smooth="yes"/>
      <point x="57" y="124"/>
      <point x="190" y="-11"/>
    </contour>
    <contour>
      <point x="377" y="63" type="curve" smooth="yes"/>
      <point x="239" y="63"/>
      <point x="137" y="169"/>
      <point x="137" y="313" type="curve" smooth="yes"/>
      <point x="137" y="485"/>
      <point x="282" y="638"/>
      <point x="444" y="638" type="curve" smooth="yes"/>
      <point x="582" y="638"/>
      <point x="684" y="532"/>
      <point x="684" y="389" type="curve" smooth="yes"/>
      <point x="684" y="216"/>
      <point x="539" y="63"/>
    </contour>
  </outline>
</glyph>
<glyph name="uni00AC" format="2">
  <advance width="600"/>
  <unicode hex="00AC"/>
  <outline>
    <contour>
      <point x="317" y="0" type="line"/>
      <point x="479" y="0" type="line"/>
      <point x="554" y="354" type="line"/>
      <point x="67" y="354" type="line"/>
      <point x="39" y="219" type="line"/>
      <point x="364" y="219" type="line"/>
    </contour>
  </outline>
</glyph>
<glyph name="registered" format="2">
  <advance width="488"/>
  <unicode hex="00AE"/>
  <outline>
    <contour>
      <point x="280" y="304" type="curve" smooth="yes"/>
      <point x="397" y="304"/>
      <point x="500" y="414"/>
      <point x="500" y="538" type="curve"/>
      <point x="500" y="644"/>
      <point x="426" y="722"/>
      <point x="325" y="722" type="curve" smooth="yes"/>
      <point x="207" y="722"/>
      <point x="104" y="613"/>
      <point x="104" y="488" type="curve"/>
      <point x="104" y="381"/>
      <point x="178" y="304"/>
    </contour>
    <contour>
      <point x="284" y="353" type="curve" smooth="yes"/>
      <point x="207" y="353"/>
      <point x="155" y="407"/>
      <point x="155" y="488" type="curve"/>
      <point x="155" y="591"/>
      <point x="227" y="673"/>
      <point x="319" y="673" type="curve" smooth="yes"/>
      <point x="397" y="673"/>
      <point x="449" y="619"/>
      <point x="449" y="538" type="curve"/>
      <point x="449" y="435"/>
      <point x="375" y="353"/>
    </contour>
    <contour>
      <point x="212" y="420" type="line"/>
      <point x="261" y="420" type="line"/>
      <point x="275" y="485" type="line"/>
      <point x="294" y="485" type="line"/>
      <point x="313" y="420" type="line"/>
      <point x="364" y="420" type="line"/>
      <point x="343" y="493" type="line"/>
      <point x="367" y="505"/>
      <point x="382" y="530"/>
      <point x="382" y="555" type="curve" smooth="yes"/>
      <point x="382" y="588"/>
      <point x="362" y="608"/>
      <point x="329" y="608" type="curve" smooth="yes"/>
      <point x="252" y="608" type="line"/>
    </contour>
    <contour>
      <point x="283" y="522" type="line"/>
      <point x="292" y="568" type="line"/>
      <point x="314" y="568" type="line" smooth="yes"/>
      <point x="327" y="568"/>
      <point x="333" y="562"/>
      <point x="333" y="548" type="curve" smooth="yes"/>
      <point x="333" y="533"/>
      <point x="323" y="522"/>
      <point x="308" y="522" type="curve" smooth="yes"/>
    </contour>
  </outline>
</glyph>
<glyph name="macron" format="2">
  <advance width="600"/>
  <unicode hex="00AF"/>
  <outline>
    <contour>
      <point x="219" y="626" type="line"/>
      <point x="541" y="626" type="line"/>
      <point x="563" y="726" type="line"/>
      <point x="241" y="726" type="line"/>
    </contour>
  </outline>
</glyph>
<glyph name="twosuperior" format="2">
  <advance width="307"/>
  <unicode hex="00B2"/>
  <outline>
    <contour>
      <point x="51" y="350" type="line"/>
      <point x="307" y="350" type="line"/>
      <point x="324" y="428" type="line"/>
      <point x="189" y="428" type="line"/>
      <point x="292" y="512" type="line" smooth="yes"/>
      <point x="335" y="546"/>
      <point x="355" y="579"/>
      <point x="355" y="615" type="curve" smooth="yes"/>
      <point x="355" y="669"/>
      <point x="306" y="706"/>
      <point x="235" y="706" type="curve" smooth="yes"/>
      <point x="191" y="706"/>
      <point x="143" y="687"/>
      <point x="100" y="653" type="curve"/>
      <point x="136" y="587" type="line"/>
      <point x="169" y="613"/>
      <point x="195" y="624"/>
      <point x="219" y="624" type="curve" smooth="yes"/>
      <point x="246" y="624"/>
      <point x="263" y="613"/>
      <point x="263" y="595" type="curve" smooth="yes"/>
      <point x="263" y="582"/>
      <point x="250" y="565"/>
      <point x="227" y="548" type="curve" smooth="yes"/>
      <point x="65" y="416" type="line"/>
    </contour>
  </outline>
</glyph>
<glyph name="threesuperior" format="2">
  <advance width="329"/>
  <unicode hex="00B3"/>
  <outline>
    <contour>
      <point x="196" y="345" type="curve" smooth="yes"/>
      <point x="278" y="345"/>
      <point x="344" y="395"/>
      <point x="344" y="458" type="curve" smooth="yes"/>
      <point x="344" y="489"/>
      <point x="325" y="511"/>
      <point x="291" y="522" type="curve"/>
      <point x="336" y="535"/>
      <point x="372" y="570"/>
      <point x="372" y="607" type="curve" smooth="yes"/>
      <point x="372" y="666"/>
      <point x="320" y="707"/>
      <point x="246" y="707" type="curve" smooth="yes"/>
      <point x="199" y="707"/>
      <point x="148" y="689"/>
      <point x="106" y="657" type="curve"/>
      <point x="151" y="592" type="line"/>
      <point x="183" y="614"/>
      <point x="209" y="624"/>
      <point x="232" y="624" type="curve" smooth="yes"/>
      <point x="256" y="624"/>
      <point x="275" y="609"/>
      <point x="275" y="589" type="curve" smooth="yes"/>
      <point x="275" y="571"/>
      <point x="255" y="559"/>
      <point x="225" y="559" type="curve" smooth="yes"/>
      <point x="195" y="559" type="line"/>
      <point x="179" y="484" type="line"/>
      <point x="220" y="484" type="line" smooth="yes"/>
      <point x="241" y="484"/>
      <point x="253" y="474"/>
      <point x="253" y="456" type="curve" smooth="yes"/>
      <point x="253" y="439"/>
      <point x="231" y="427"/>
      <point x="203" y="427" type="curve" smooth="yes"/>
      <point x="169" y="427"/>
      <point x="143" y="439"/>
      <point x="120" y="466" type="curve"/>
      <point x="57" y="407" type="line"/>
      <point x="84" y="367"/>
      <point x="134" y="345"/>
    </contour>
  </outline>
</glyph>
<glyph name="acute" format="2">
  <advance width="600"/>
  <unicode hex="00B4"/>
  <outline>
    <contour>
      <point x="284" y="601" type="line"/>
      <point x="428" y="601" type="line"/>
      <point x="645" y="747" type="line"/>
      <point x="451" y="747" type="line"/>
    </contour>
  </outline>
</glyph>
<glyph name="cedilla" format="2">
  <advance width="600"/>
  <unicode hex="00B8"/>
  <outline>
    <contour>
      <point x="210" y="-253" type="curve" smooth="yes"/>
      <point x="287" y="-253"/>
      <point x="348" y="-201"/>
      <point x="348" y="-136" type="curve" smooth="yes"/>
      <point x="348" y="-94"/>
      <point x="317" y="-66"/>
      <point x="263" y="-59" type="curve"/>
      <point x="289" y="0" type="line"/>
      <point x="216" y="0" type="line"/>
      <point x="169" y="-109" type="line"/>
      <point x="210" y="-109" type="line" smooth="yes"/>
      <point x="241" y="-109"/>
      <point x="261" y="-123"/>
      <point x="261" y="-144" type="curve" smooth="yes"/>
      <point x="261" y="-167"/>
      <point x="240" y="-182"/>
      <point x="208" y="-182" type="curve" smooth="yes"/>
      <point x="178" y="-182"/>
      <point x="150" y="-170"/>
      <point x="131" y="-150" type="curve"/>
      <point x="76" y="-205" type="line"/>
      <point x="106" y="-238"/>
      <point x="150" y="-253"/>
    </contour>
  </outline>
</glyph>
<glyph name="ordmasculine" format="2">
  <advance width="483"/>
  <unicode hex="00BA"/>
  <outline>
    <contour>
      <point x="280" y="297" type="curve" smooth="yes"/>
      <point x="403" y="297"/>
      <point x="506" y="398"/>
      <point x="506" y="518" type="curve" smooth="yes"/>
      <point x="506" y="628"/>
      <point x="420" y="710"/>
      <point x="306" y="710" type="curve" smooth="yes"/>
      <point x="181" y="710"/>
      <point x="79" y="610"/>
      <point x="79" y="489" type="curve" smooth="yes"/>
      <point x="79" y="380"/>
      <point x="165" y="297"/>
    </contour>
    <contour>
      <point x="286" y="406" type="curve" smooth="yes"/>
      <point x="236" y="406"/>
      <point x="201" y="443"/>
      <point x="201" y="495" type="curve" smooth="yes"/>
      <point x="201" y="553"/>
      <point x="245" y="601"/>
      <point x="299" y="601" type="curve" smooth="yes"/>
      <point x="349" y="601"/>
      <point x="384" y="564"/>
      <point x="384" y="513" type="curve" smooth="yes"/>
      <point x="384" y="454"/>
      <point x="340" y="406"/>
    </contour>
  </outline>
</glyph>
<glyph name="guillemotright" format="2">
  <advance width="746"/>
  <unicode hex="00BB"/>
  <outline>
    <contour>
      <point x="545" y="516" type="line"/>
      <point x="392" y="516" type="line"/>
      <point x="558" y="259" type="line"/>
      <point x="278" y="0" type="line"/>
      <point x="433" y="0" type="line"/>
      <point x="718" y="258" type="line"/>
    </contour>
    <contour>
      <point x="255" y="516" type="line"/>
      <point x="102" y="516" type="line"/>
      <point x="268" y="259" type="line"/>
      <point x="-12" y="0" type="line"/>
      <point x="143" y="0" type="line"/>
      <point x="428" y="258" type="line"/>
    </contour>
  </outline>
</glyph>
<glyph name="questiondown" format="2">
  <advance width="526"/>
  <unicode hex="00BF"/>
  <outline>
    <contour>
      <point x="338" y="502" type="curve" smooth="yes"/>
      <point x="286" y="502"/>
      <point x="240" y="454"/>
      <point x="240" y="400" type="curve" smooth="yes"/>
      <point x="240" y="355"/>
      <point x="272" y="321"/>
      <point x="316" y="321" type="curve" smooth="yes"/>
      <point x="370" y="321"/>
      <point x="416" y="367"/>
      <point x="416" y="423" type="curve" smooth="yes"/>
      <point x="416" y="468"/>
      <point x="383" y="502"/>
    </contour>
    <contour>
      <point x="364" y="261" type="curve"/>
      <point x="237" y="261" type="line"/>
      <point x="229" y="221"/>
      <point x="214" y="202"/>
      <point x="170" y="178" type="curve" smooth="yes"/>
      <point x="143" y="162" type="line" smooth="yes"/>
      <point x="30" y="95"/>
      <point x="-16" y="34"/>
      <point x="-16" y="-48" type="curve" smooth="yes"/>
      <point x="-16" y="-149"/>
      <point x="71" y="-219"/>
      <point x="196" y="-219" type="curve" smooth="yes"/>
      <point x="301" y="-219"/>
      <point x="400" y="-160"/>
      <point x="454" y="-63" type="curve"/>
      <point x="343" y="-8" type="line"/>
      <point x="317" y="-54"/>
      <point x="268" y="-84"/>
      <point x="217" y="-84" type="curve" smooth="yes"/>
      <point x="167" y="-84"/>
      <point x="136" y="-61"/>
      <point x="136" y="-24" type="curve"/>
      <point x="136" y="2"/>
      <point x="157" y="29"/>
      <point x="197" y="54" type="curve" smooth="yes"/>
      <point x="256" y="92" type="line" smooth="yes"/>
      <point x="323" y="133"/>
      <point x="349" y="175"/>
    </contour>
  </outline>
</glyph>
<glyph name="Oslash" format="2">
  <advance width="799"/>
  <unicode hex="00D8"/>
  <outline>
    <contour>
      <point x="392" y="-11" type="curve" smooth="yes"/>
      <point x="601" y="-11"/>
      <point x="772" y="165"/>
      <point x="772" y="380" type="curve" smooth="yes"/>
      <point x="772" y="450"/>
      <point x="753" y="513"/>
      <point x="719" y="566" type="curve"/>
      <point x="860" y="700" type="line"/>
      <point x="714" y="700" type="line"/>
      <point x="652" y="641" type="line"/>
      <point x="596" y="685"/>
      <point x="525" y="711"/>
      <point x="444" y="711" type="curve" smooth="yes"/>
      <point x="235" y="711"/>
      <point x="63" y="535"/>
      <point x="63" y="320" type="curve" smooth="yes"/>
      <point x="63" y="248"/>
      <point x="83" y="183"/>
      <point x="119" y="130" type="curve"/>
      <point x="-17" y="0" type="line"/>
      <point x="128" y="0" type="line"/>
      <point x="187" y="57" type="line"/>
      <point x="243" y="14"/>
      <point x="313" y="-11"/>
    </contour>
    <contour>
      <point x="249" y="255" type="line"/>
      <point x="241" y="278"/>
      <point x="237" y="304"/>
      <point x="237" y="331" type="curve" smooth="yes"/>
      <point x="237" y="457"/>
      <point x="324" y="558"/>
      <point x="433" y="558" type="curve" smooth="yes"/>
      <point x="470" y="558"/>
      <point x="504" y="546"/>
      <point x="531" y="525" type="curve"/>
    </contour>
    <contour>
      <point x="403" y="142" type="curve" smooth="yes"/>
      <point x="367" y="142"/>
      <point x="335" y="153"/>
      <point x="309" y="173" type="curve"/>
      <point x="588" y="440" type="line"/>
      <point x="595" y="418"/>
      <point x="599" y="395"/>
      <point x="599" y="369" type="curve" smooth="yes"/>
      <point x="599" y="243"/>
      <point x="512" y="142"/>
    </contour>
  </outline>
</glyph>
<glyph name="Thorn" format="2">
  <advance width="665"/>
  <unicode hex="00DE"/>
  <outline>
    <contour>
      <point x="22" y="0" type="line"/>
      <point x="190" y="0" type="line"/>
      <point x="216" y="123" type="line"/>
      <point x="376" y="123" type="line" smooth="yes"/>
      <point x="529" y="123"/>
      <point x="642" y="229"/>
      <point x="642" y="373" type="curve" smooth="yes"/>
      <point x="642" y="498"/>
      <point x="554" y="579"/>
      <point x="420" y="579" type="curve" smooth="yes"/>
      <point x="313" y="579" type="line"/>
      <point x="339" y="700" type="line"/>
      <point x="171" y="700" type="line"/>
    </contour>
    <contour>
      <point x="245" y="260" type="line"/>
      <point x="283" y="437" type="line"/>
      <point x="378" y="437" type="line" smooth="yes"/>
      <point x="436" y="437"/>
      <point x="470" y="409"/>
      <point x="470" y="361" type="curve" smooth="yes"/>
      <point x="470" y="298"/>
      <point x="428" y="260"/>
      <point x="360" y="260" type="curve" smooth="yes"/>
    </contour>
  </outline>
</glyph>
<glyph name="ae" format="2">
  <advance width="886"/>
  <unicode hex="00E6"/>
  <outline>
    <contour>
      <point x="196" y="-5" type="curve" smooth="yes"/>
      <point x="273" y="-5"/>
      <point x="334" y="17"/>
      <point x="401" y="70" type="curve"/>
      <point x="446" y="19"/>
      <point x="513" y="-10"/>
      <point x="593" y="-10" type="curve" smooth="yes"/>
      <point x="668" y="-10"/>
      <point x="728" y="10"/>
      <point x="794" y="58" type="curve"/>
      <point x="707" y="156" type="line"/>
      <point x="683" y="131"/>
      <point x="649" y="118"/>
      <point x="610" y="118" type="curve" smooth="yes"/>
      <point x="548" y="118"/>
      <point x="503" y="157"/>
      <point x="494" y="217" type="curve"/>
      <point x="840" y="217" type="line"/>
      <point x="844" y="238"/>
      <point x="846" y="262"/>
      <point x="846" y="293" type="curve" smooth="yes"/>
      <point x="846" y="430"/>
      <point x="755" y="525"/>
      <point x="621" y="525" type="curve" smooth="yes"/>
      <point x="558" y="525"/>
      <point x="500" y="501"/>
      <point x="453" y="464" type="curve"/>
      <point x="421" y="501"/>
      <point x="369" y="523"/>
      <point x="299" y="523" type="curve" smooth="yes"/>
      <point x="237" y="523"/>
      <point x="172" y="510"/>
      <point x="87" y="480" type="curve"/>
      <point x="123" y="366" type="line"/>
      <point x="180" y="384"/>
      <point x="218" y="392"/>
      <point x="251" y="392" type="curve" smooth="yes"/>
      <point x="325" y="392"/>
      <point x="368" y="364"/>
      <point x="352" y="306" type="curve" smooth="yes"/>
      <point x="346" y="284" type="line"/>
      <point x="311" y="295"/>
      <point x="272" y="301"/>
      <point x="232" y="301" type="curve" smooth="yes"/>
      <point x="105" y="301"/>
      <point x="27" y="237"/>
      <point x="27" y="135" type="curve" smooth="yes"/>
      <point x="27" y="50"/>
      <point x="94" y="-5"/>
    </contour>
    <contour>
      <point x="504" y="308" type="line"/>
      <point x="523" y="362"/>
      <point x="563" y="398"/>
      <point x="612" y="398" type="curve" smooth="yes"/>
      <point x="663" y="398"/>
      <point x="698" y="363"/>
      <point x="706" y="308" type="curve"/>
    </contour>
    <contour>
      <point x="246" y="100" type="curve" smooth="yes"/>
      <point x="196" y="100"/>
      <point x="168" y="118"/>
      <point x="168" y="148" type="curve" smooth="yes"/>
      <point x="168" y="185"/>
      <point x="198" y="206"/>
      <point x="253" y="206" type="curve" smooth="yes"/>
      <point x="286" y="206"/>
      <point x="318" y="202"/>
      <point x="345" y="195" type="curve"/>
      <point x="347" y="175"/>
      <point x="352" y="155"/>
      <point x="359" y="137" type="curve"/>
      <point x="326" y="114"/>
      <point x="285" y="100"/>
    </contour>
  </outline>
</glyph>
<glyph name="divide" format="2">
  <advance width="600"/>
  <unicode hex="00F7"/>
  <outline>
    <contour>
      <point x="86" y="297" type="line"/>
      <point x="536" y="297" type="line"/>
      <point x="562" y="421" type="line"/>
      <point x="112" y="421" type="line"/>
    </contour>
    <contour>
      <point x="269" y="39" type="curve" smooth="yes"/>
      <point x="324" y="39"/>
      <point x="369" y="86"/>
      <point x="369" y="139" type="curve" smooth="yes"/>
      <point x="369" y="189"/>
      <point x="333" y="226"/>
      <point x="286" y="226" type="curve" smooth="yes"/>
      <point x="228" y="226"/>
      <point x="183" y="181"/>
      <point x="183" y="126" type="curve" smooth="yes"/>
      <point x="183" y="76"/>
      <point x="220" y="39"/>
    </contour>
    <contour>
      <point x="367" y="499" type="curve" smooth="yes"/>
      <point x="422" y="499"/>
      <point x="467" y="546"/>
      <point x="467" y="599" type="curve" smooth="yes"/>
      <point x="467" y="649"/>
      <point x="431" y="686"/>
      <point x="384" y="686" type="curve" smooth="yes"/>
      <point x="326" y="686"/>
      <point x="281" y="641"/>
      <point x="281" y="586" type="curve" smooth="yes"/>
      <point x="281" y="536"/>
      <point x="318" y="499"/>
    </contour>
  </outline>
</glyph>
<glyph name="Aogonek" format="2">
  <advance width="727"/>
  <unicode hex="0104"/>
  <outline>
    <contour>
      <point x="560" y="-231" type="curve" smooth="yes"/>
      <point x="595" y="-231"/>
      <point x="631" y="-222"/>
      <point x="656" y="-208" type="curve"/>
      <point x="651" y="-138" type="line"/>
      <point x="640" y="-145"/>
      <point x="622" y="-149"/>
      <point x="604" y="-149" type="curve" smooth="yes"/>
      <point x="579" y="-149"/>
      <point x="564" y="-136"/>
      <point x="564" y="-113" type="curve" smooth="yes"/>
      <point x="564" y="-76"/>
      <point x="599" y="-38"/>
      <point x="669" y="0" type="curve"/>
      <point x="551" y="700" type="line"/>
      <point x="359" y="700" type="line"/>
      <point x="-54" y="0" type="line"/>
      <point x="130" y="0" type="line"/>
      <point x="221" y="167" type="line"/>
      <point x="472" y="167" type="line"/>
      <point x="495" y="0" type="line"/>
      <point x="588" y="0" type="line"/>
      <point x="510" y="-47"/>
      <point x="472" y="-97"/>
      <point x="472" y="-153" type="curve" smooth="yes"/>
      <point x="472" y="-201"/>
      <point x="506" y="-231"/>
    </contour>
    <contour>
      <point x="294" y="300" type="line"/>
      <point x="421" y="532" type="line"/>
      <point x="453" y="300" type="line"/>
    </contour>
  </outline>
</glyph>
<glyph name="aogonek" format="2">
  <advance width="570"/>
  <unicode hex="0105"/>
  <outline>
    <contour>
      <point x="346" y="-231" type="curve" smooth="yes"/>
      <point x="381" y="-231"/>
      <point x="417" y="-222"/>
      <point x="442" y="-208" type="curve"/>
      <point x="437" y="-138" type="line"/>
      <point x="426" y="-145"/>
      <point x="408" y="-149"/>
      <point x="390" y="-149" type="curve" smooth="yes"/>
      <point x="365" y="-149"/>
      <point x="350" y="-136"/>
      <point x="350" y="-113" type="curve" smooth="yes"/>
      <point x="350" y="-76"/>
      <point x="385" y="-38"/>
      <point x="455" y="0" type="curve"/>
      <point x="521" y="303" type="line" smooth="yes"/>
      <point x="551" y="440"/>
      <point x="469" y="523"/>
      <point x="305" y="523" type="curve" smooth="yes"/>
      <point x="244" y="523"/>
      <point x="176" y="509"/>
      <point x="95" y="480" type="curve"/>
      <point x="131" y="366" type="line"/>
      <point x="187" y="384"/>
      <point x="227" y="392"/>
      <point x="262" y="392" type="curve" smooth="yes"/>
      <point x="343" y="392"/>
      <point x="376" y="363"/>
      <point x="363" y="302" type="curve" smooth="yes"/>
      <point x="358" y="277" type="line"/>
      <point x="317" y="292"/>
      <point x="271" y="301"/>
      <point x="227" y="301" type="curve" smooth="yes"/>
      <point x="97" y="300"/>
      <point x="18" y="238"/>
      <point x="18" y="135" type="curve" smooth="yes"/>
      <point x="18" y="49"/>
      <point x="79" y="-4"/>
      <point x="177" y="-4" type="curve" smooth="yes"/>
      <point x="222" y="-4"/>
      <point x="258" y="9"/>
      <point x="308" y="44" type="curve"/>
      <point x="298" y="0" type="line"/>
      <point x="374" y="0" type="line"/>
      <point x="296" y="-47"/>
      <point x="258" y="-97"/>
      <point x="258" y="-153" type="curve" smooth="yes"/>
      <point x="258" y="-201"/>
      <point x="292" y="-231"/>
    </contour>
    <contour>
      <point x="241" y="100" type="curve" smooth="yes"/>
      <point x="191" y="100"/>
      <point x="163" y="118"/>
      <point x="163" y="148" type="curve" smooth="yes"/>
      <point x="163" y="185"/>
      <point x="193" y="206"/>
      <point x="248" y="206" type="curve" smooth="yes"/>
      <point x="281" y="206"/>
      <point x="314" y="202"/>
      <point x="340" y="195" type="curve"/>
      <point x="324" y="122" type="line"/>
      <point x="298" y="107"/>
      <point x="271" y="100"/>
    </contour>
  </outline>
</glyph>
<glyph name="Dcroat" format="2">
  <advance width="760"/>
  <unicode hex="0110"/>
  <outline>
    <contour>
      <point x="36" y="0" type="line"/>
      <point x="352" y="0" type="line" smooth="yes"/>
      <point x="560" y="0"/>
      <point x="736" y="178"/>
      <point x="736" y="387" type="curve" smooth="yes"/>
      <point x="736" y="566"/>
      <point x="603" y="700"/>
      <point x="427" y="700" type="curve" smooth="yes"/>
      <point x="185" y="700" type="line"/>
      <point x="124" y="413" type="line"/>
      <point x="45" y="413" type="line"/>
      <point x="20" y="293" type="line"/>
      <point x="98" y="293" type="line"/>
    </contour>
    <contour>
      <point x="235" y="147" type="line"/>
      <point x="266" y="293" type="line"/>
      <point x="413" y="293" type="line"/>
      <point x="438" y="413" type="line"/>
      <point x="292" y="413" type="line"/>
      <point x="322" y="553" type="line"/>
      <point x="410" y="553" type="line" smooth="yes"/>
      <point x="495" y="553"/>
      <point x="559" y="476"/>
      <point x="559" y="373" type="curve" smooth="yes"/>
      <point x="559" y="248"/>
      <point x="473" y="147"/>
      <point x="368" y="147" type="curve" smooth="yes"/>
    </contour>
  </outline>
</glyph>
<glyph name="Eogonek" format="2">
  <advance width="657"/>
  <unicode hex="0118"/>
  <outline>
    <contour>
      <point x="434" y="-231" type="curve" smooth="yes"/>
      <point x="469" y="-231"/>
      <point x="505" y="-222"/>
      <point x="530" y="-208" type="curve"/>
      <point x="525" y="-138" type="line"/>
      <point x="514" y="-145"/>
      <point x="496" y="-149"/>
      <point x="478" y="-149" type="curve" smooth="yes"/>
      <point x="453" y="-149"/>
      <point x="438" y="-136"/>
      <point x="438" y="-113" type="curve" smooth="yes"/>
      <point x="438" y="-76"/>
      <point x="473" y="-38"/>
      <point x="543" y="0" type="curve"/>
      <point x="575" y="144" type="line"/>
      <point x="220" y="144" type="line"/>
      <point x="249" y="283" type="line"/>
      <point x="496" y="283" type="line"/>
      <point x="526" y="423" type="line"/>
      <point x="279" y="423" type="line"/>
      <point x="307" y="556" type="line"/>
      <point x="656" y="556" type="line"/>
      <point x="688" y="700" type="line"/>
      <point x="170" y="700" type="line"/>
      <point x="21" y="0" type="line"/>
      <point x="462" y="0" type="line"/>
      <point x="384" y="-47"/>
      <point x="346" y="-97"/>
      <point x="346" y="-153" type="curve" smooth="yes"/>
      <point x="346" y="-201"/>
      <point x="380" y="-231"/>
    </contour>
  </outline>
</glyph>
<glyph name="gcommaaccent" format="2">
  <advance width="628"/>
  <unicode hex="0123"/>
  <outline>
    <contour>
      <point x="526" y="840" type="line"/>
      <point x="417" y="840" type="line"/>
      <point x="277" y="625" type="line"/>
      <point x="418" y="625" type="line"/>
    </contour>
    <component base="g"/>
  </outline>
</glyph>
<glyph name="hcircumflex" format="2">
  <advance width="606"/>
  <unicode hex="0125"/>
  <outline>
    <contour>
      <point x="6" y="0" type="line"/>
      <point x="165" y="0" type="line"/>
      <point x="239" y="354" type="line"/>
      <point x="267" y="383"/>
      <point x="296" y="397"/>
      <point x="328" y="397" type="curve" smooth="yes"/>
      <point x="382" y="397"/>
      <point x="410" y="356"/>
      <point x="397" y="297" type="curve"/>
      <point x="333" y="0" type="line"/>
      <point x="492" y="0" type="line"/>
      <point x="564" y="337" type="line" smooth="yes"/>
      <point x="587" y="444"/>
      <point x="531" y="522"/>
      <point x="429" y="522" type="curve"/>
      <point x="364" y="522"/>
      <point x="305" y="490"/>
      <point x="255" y="430" type="curve"/>
      <point x="317" y="727" type="line"/>
      <point x="161" y="727" type="line"/>
    </contour>
    <component base="circumflex" xOffset="-131" yOffset="183"/>
  </outline>
</glyph>
<glyph name="Hbar" format="2">
  <advance width="813"/>
  <unicode hex="0126"/>
  <outline>
    <contour>
      <point x="43" y="0" type="line"/>
      <point x="211" y="0" type="line"/>
      <point x="270" y="277" type="line"/>
      <point x="548" y="277" type="line"/>
      <point x="489" y="0" type="line"/>
      <point x="657" y="0" type="line"/>
      <point x="762" y="493" type="line"/>
      <point x="846" y="493" type="line"/>
      <point x="876" y="613" type="line"/>
      <point x="787" y="613" type="line"/>
      <point x="806" y="700" type="line"/>
      <point x="638" y="700" type="line"/>
      <point x="619" y="613" type="line"/>
      <point x="341" y="613" type="line"/>
      <point x="360" y="700" type="line"/>
      <point x="192" y="700" type="line"/>
      <point x="173" y="613" type="line"/>
      <point x="89" y="613" type="line"/>
      <point x="59" y="493" type="line"/>
      <point x="148" y="493" type="line"/>
    </contour>
    <contour>
      <point x="300" y="417" type="line"/>
      <point x="316" y="493" type="line"/>
      <point x="594" y="493" type="line"/>
      <point x="578" y="417" type="line"/>
    </contour>
  </outline>
</glyph>
<glyph name="hbar" format="2">
  <advance width="615"/>
  <unicode hex="0127"/>
  <outline>
    <contour>
      <point x="16" y="0" type="line"/>
      <point x="175" y="0" type="line"/>
      <point x="250" y="355" type="line"/>
      <point x="278" y="384"/>
      <point x="306" y="397"/>
      <point x="338" y="397" type="curve" smooth="yes"/>
      <point x="392" y="397"/>
      <point x="420" y="356"/>
      <point x="407" y="297" type="curve" smooth="yes"/>
      <point x="343" y="0" type="line"/>
      <point x="502" y="0" type="line"/>
      <point x="574" y="337" type="line" smooth="yes"/>
      <point x="598" y="447"/>
      <point x="543" y="522"/>
      <point x="439" y="522" type="curve" smooth="yes"/>
      <point x="374" y="522"/>
      <point x="315" y="491"/>
      <point x="266" y="432" type="curve"/>
      <point x="293" y="560" type="line"/>
      <point x="398" y="560" type="line"/>
      <point x="418" y="648" type="line"/>
      <point x="312" y="648" type="line"/>
      <point x="331" y="737" type="line"/>
      <point x="165" y="712" type="line"/>
      <point x="152" y="648" type="line"/>
      <point x="101" y="648" type="line"/>
      <point x="81" y="560" type="line"/>
      <point x="133" y="560" type="line"/>
    </contour>
  </outline>
</glyph>
<glyph name="kgreenlandic" format="2">
  <advance width="582"/>
  <unicode hex="0138"/>
  <outline>
    <contour>
      <point x="6" y="0" type="line"/>
      <point x="165" y="0" type="line"/>
      <point x="212" y="216" type="line"/>
      <point x="343" y="0" type="line"/>
      <point x="531" y="0" type="line"/>
      <point x="358" y="255" type="line"/>
      <point x="629" y="516" type="line"/>
      <point x="438" y="516" type="line"/>
      <point x="230" y="299" type="line"/>
      <point x="277" y="516" type="line"/>
      <point x="120" y="516" type="line"/>
    </contour>
  </outline>
</glyph>
<glyph name="Lslash" format="2">
  <advance width="679"/>
  <unicode hex="0141"/>
  <outline>
    <contour>
      <point x="50" y="0" type="line"/>
      <point x="558" y="0" type="line"/>
      <point x="590" y="147" type="line"/>
      <point x="249" y="147" type="line"/>
      <point x="283" y="308" type="line"/>
      <point x="461" y="401" type="line"/>
      <point x="491" y="543" type="line"/>
      <point x="314" y="451" type="line"/>
      <point x="367" y="700" type="line"/>
      <point x="199" y="700" type="line"/>
      <point x="125" y="352" type="line"/>
      <point x="17" y="296" type="line"/>
      <point x="-13" y="154" type="line"/>
      <point x="95" y="210" type="line"/>
    </contour>
  </outline>
</glyph>
<glyph name="lslash" format="2">
  <advance width="336"/>
  <unicode hex="0142"/>
  <outline>
    <contour>
      <point x="34" y="0" type="line"/>
      <point x="193" y="0" type="line"/>
      <point x="263" y="331" type="line"/>
      <point x="363" y="393" type="line"/>
      <point x="394" y="545" type="line"/>
      <point x="295" y="484" type="line"/>
      <point x="349" y="737" type="line"/>
      <point x="186" y="712" type="line"/>
      <point x="113" y="371" type="line"/>
      <point x="17" y="311" type="line"/>
      <point x="-14" y="160" type="line"/>
      <point x="81" y="218" type="line"/>
    </contour>
  </outline>
</glyph>
<glyph name="oe" format="2">
  <advance width="961"/>
  <unicode hex="0153"/>
  <outline>
    <contour>
      <point x="282" y="-10" type="curve" smooth="yes"/>
      <point x="357" y="-10"/>
      <point x="425" y="21"/>
      <point x="476" y="72" type="curve"/>
      <point x="520" y="21"/>
      <point x="588" y="-10"/>
      <point x="668" y="-10" type="curve" smooth="yes"/>
      <point x="743" y="-10"/>
      <point x="803" y="10"/>
      <point x="869" y="58" type="curve"/>
      <point x="782" y="155" type="line"/>
      <point x="758" y="130"/>
      <point x="724" y="117"/>
      <point x="685" y="117" type="curve" smooth="yes"/>
      <point x="623" y="117"/>
      <point x="578" y="157"/>
      <point x="569" y="217" type="curve"/>
      <point x="915" y="217" type="line"/>
      <point x="919" y="238"/>
      <point x="921" y="262"/>
      <point x="921" y="293" type="curve" smooth="yes"/>
      <point x="921" y="430"/>
      <point x="830" y="525"/>
      <point x="696" y="525" type="curve" smooth="yes"/>
      <point x="624" y="525"/>
      <point x="557" y="494"/>
      <point x="507" y="445" type="curve"/>
      <point x="465" y="495"/>
      <point x="402" y="525"/>
      <point x="328" y="525" type="curve" smooth="yes"/>
      <point x="168" y="525"/>
      <point x="40" y="393"/>
      <point x="40" y="231" type="curve" smooth="yes"/>
      <point x="40" y="92"/>
      <point x="143" y="-10"/>
    </contour>
    <contour>
      <point x="291" y="127" type="curve" smooth="yes"/>
      <point x="233" y="127"/>
      <point x="196" y="170"/>
      <point x="196" y="239" type="curve" smooth="yes"/>
      <point x="196" y="323"/>
      <point x="250" y="390"/>
      <point x="318" y="390" type="curve" smooth="yes"/>
      <point x="377" y="390"/>
      <point x="414" y="347"/>
      <point x="414" y="280" type="curve" smooth="yes"/>
      <point x="414" y="192"/>
      <point x="362" y="127"/>
    </contour>
    <contour>
      <point x="687" y="398" type="curve" smooth="yes"/>
      <point x="738" y="398"/>
      <point x="773" y="363"/>
      <point x="781" y="308" type="curve"/>
      <point x="579" y="308" type="line"/>
      <point x="598" y="362"/>
      <point x="638" y="398"/>
    </contour>
  </outline>
</glyph>
<glyph name="Tcedilla" format="2">
  <advance width="652"/>
  <unicode hex="0162"/>
  <outline>
    <contour>
      <point x="226" y="-253" type="curve" smooth="yes"/>
      <point x="303" y="-253"/>
      <point x="364" y="-201"/>
      <point x="364" y="-136" type="curve" smooth="yes"/>
      <point x="364" y="-94"/>
      <point x="333" y="-66"/>
      <point x="279" y="-59" type="curve"/>
      <point x="305" y="0" type="line"/>
      <point x="355" y="0" type="line"/>
      <point x="473" y="553" type="line"/>
      <point x="691" y="553" type="line"/>
      <point x="724" y="700" type="line"/>
      <point x="114" y="700" type="line"/>
      <point x="81" y="553" type="line"/>
      <point x="304" y="553" type="line"/>
      <point x="186" y="0" type="line"/>
      <point x="232" y="0" type="line"/>
      <point x="185" y="-109" type="line"/>
      <point x="226" y="-109" type="line" smooth="yes"/>
      <point x="257" y="-109"/>
      <point x="277" y="-123"/>
      <point x="277" y="-144" type="curve" smooth="yes"/>
      <point x="277" y="-167"/>
      <point x="256" y="-182"/>
      <point x="224" y="-182" type="curve" smooth="yes"/>
      <point x="194" y="-182"/>
      <point x="166" y="-170"/>
      <point x="147" y="-150" type="curve"/>
      <point x="92" y="-205" type="line"/>
      <point x="122" y="-238"/>
      <point x="166" y="-253"/>
    </contour>
  </outline>
</glyph>
<glyph name="tcaron" format="2">
  <advance width="449"/>
  <unicode hex="0165"/>
  <outline>
    <contour>
      <point x="420" y="602" type="line"/>
      <point x="509" y="602" type="line"/>
      <point x="605" y="807" type="line"/>
      <point x="470" y="782" type="line"/>
    </contour>
    <component base="t"/>
  </outline>
</glyph>
<glyph name="Tbar" format="2">
  <advance width="652"/>
  <unicode hex="0166"/>
  <outline>
    <contour>
      <point x="186" y="0" type="line"/>
      <point x="355" y="0" type="line"/>
      <point x="410" y="259" type="line"/>
      <point x="533" y="259" type="line"/>
      <point x="559" y="379" type="line"/>
      <point x="436" y="379" type="line"/>
      <point x="473" y="553" type="line"/>
      <point x="691" y="553" type="line"/>
      <point x="724" y="700" type="line"/>
      <point x="114" y="700" type="line"/>
      <point x="81" y="553" type="line"/>
      <point x="304" y="553" type="line"/>
      <point x="267" y="379" type="line"/>
      <point x="144" y="379" type="line"/>
      <point x="118" y="259" type="line"/>
      <point x="241" y="259" type="line"/>
    </contour>
  </outline>
</glyph>
<glyph name="tbar" format="2">
  <advance width="449"/>
  <unicode hex="0167"/>
  <outline>
    <contour>
      <point x="262" y="-6" type="curve" smooth="yes"/>
      <point x="298" y="-6"/>
      <point x="338" y="-2"/>
      <point x="363" y="5" type="curve"/>
      <point x="391" y="135" type="line"/>
      <point x="357" y="128"/>
      <point x="348" y="127"/>
      <point x="332" y="127" type="curve" smooth="yes"/>
      <point x="280" y="127"/>
      <point x="262" y="146"/>
      <point x="273" y="193" type="curve" smooth="yes"/>
      <point x="280" y="226" type="line"/>
      <point x="416" y="226" type="line"/>
      <point x="435" y="314" type="line"/>
      <point x="299" y="314" type="line"/>
      <point x="315" y="391" type="line"/>
      <point x="450" y="391" type="line"/>
      <point x="478" y="516" type="line"/>
      <point x="342" y="516" type="line"/>
      <point x="380" y="692" type="line"/>
      <point x="214" y="659" type="line"/>
      <point x="183" y="516" type="line"/>
      <point x="87" y="516" type="line"/>
      <point x="59" y="391" type="line"/>
      <point x="157" y="391" type="line"/>
      <point x="140" y="314" type="line"/>
      <point x="44" y="314" type="line"/>
      <point x="25" y="226" type="line"/>
      <point x="121" y="226" type="line"/>
      <point x="109" y="168" type="line" smooth="yes"/>
      <point x="85" y="55"/>
      <point x="139" y="-6"/>
    </contour>
  </outline>
</glyph>
<glyph name="uogonek" format="2">
  <advance width="606"/>
  <unicode hex="0173"/>
  <outline>
    <contour>
      <point x="379" y="-231" type="curve" smooth="yes"/>
      <point x="414" y="-231"/>
      <point x="450" y="-222"/>
      <point x="475" y="-208" type="curve"/>
      <point x="470" y="-138" type="line"/>
      <point x="459" y="-145"/>
      <point x="441" y="-149"/>
      <point x="423" y="-149" type="curve" smooth="yes"/>
      <point x="398" y="-149"/>
      <point x="383" y="-136"/>
      <point x="383" y="-113" type="curve" smooth="yes"/>
      <point x="383" y="-76"/>
      <point x="418" y="-38"/>
      <point x="488" y="0" type="curve"/>
      <point x="600" y="516" type="line"/>
      <point x="441" y="516" type="line"/>
      <point x="363" y="158" type="line"/>
      <point x="336" y="131"/>
      <point x="309" y="119"/>
      <point x="278" y="119" type="curve" smooth="yes"/>
      <point x="224" y="119"/>
      <point x="196" y="160"/>
      <point x="209" y="219" type="curve" smooth="yes"/>
      <point x="273" y="516" type="line"/>
      <point x="114" y="516" type="line"/>
      <point x="42" y="179" type="line" smooth="yes"/>
      <point x="19" y="72"/>
      <point x="75" y="-6"/>
      <point x="177" y="-6" type="curve" smooth="yes"/>
      <point x="240" y="-6"/>
      <point x="298" y="24"/>
      <point x="346" y="80" type="curve"/>
      <point x="329" y="0" type="line"/>
      <point x="407" y="0" type="line"/>
      <point x="329" y="-47"/>
      <point x="291" y="-97"/>
      <point x="291" y="-153" type="curve" smooth="yes"/>
      <point x="291" y="-201"/>
      <point x="325" y="-231"/>
    </contour>
  </outline>
</glyph>
<glyph name="dotlessj" format="2">
  <advance width="283"/>
  <unicode hex="0237"/>
  <anchor x="198" y="516" name="top"/>
  <outline>
    <contour>
      <point x="-41" y="-219" type="curve" smooth="yes"/>
      <point x="61" y="-219"/>
      <point x="130" y="-162"/>
      <point x="152" y="-62" type="curve" smooth="yes"/>
      <point x="278" y="516" type="line"/>
      <point x="118" y="516" type="line"/>
      <point x="-4" y="-48" type="line" smooth="yes"/>
      <point x="-10" y="-75"/>
      <point x="-26" y="-88"/>
      <point x="-55" y="-88" type="curve" smooth="yes"/>
      <point x="-77" y="-88"/>
      <point x="-92" y="-86"/>
      <point x="-106" y="-82" type="curve"/>
      <point x="-132" y="-204" type="line"/>
      <point x="-113" y="-212"/>
      <point x="-71" y="-219"/>
    </contour>
  </outline>
</glyph>
<glyph name="caron" format="2">
  <advance width="600"/>
  <unicode hex="02C7"/>
  <outline>
    <contour>
      <point x="297" y="604" type="line"/>
      <point x="450" y="604" type="line"/>
      <point x="605" y="755" type="line"/>
      <point x="479" y="755" type="line"/>
      <point x="383" y="673" type="line"/>
      <point x="319" y="755" type="line"/>
      <point x="201" y="755" type="line"/>
    </contour>
  </outline>
</glyph>
<glyph name="dotaccent" format="2">
  <advance width="600"/>
  <unicode hex="02D9"/>
  <guideline x="384" y="690" angle="90.0" identifier="U1JLGBQLuf"/>
  <guideline x="384" y="690" angle="0.0" identifier="24p1dHp2rB"/>
  <guideline x="375" y="642" angle="78.0" identifier="WSd1QCTmKi"/>
  <outline>
    <contour>
      <point x="375" y="602" type="curve" smooth="yes"/>
      <point x="425" y="602"/>
      <point x="471" y="648"/>
      <point x="471" y="701" type="curve" smooth="yes"/>
      <point x="471" y="745"/>
      <point x="438" y="779"/>
      <point x="396" y="779" type="curve" smooth="yes"/>
      <point x="343" y="779"/>
      <point x="298" y="734"/>
      <point x="298" y="680" type="curve" smooth="yes"/>
      <point x="298" y="635"/>
      <point x="330" y="602"/>
    </contour>
  </outline>
</glyph>
<glyph name="ring" format="2">
  <advance width="600"/>
  <unicode hex="02DA"/>
  <outline>
    <contour>
      <point x="379" y="587" type="curve" smooth="yes"/>
      <point x="451" y="587"/>
      <point x="516" y="652"/>
      <point x="516" y="724" type="curve" smooth="yes"/>
      <point x="516" y="787"/>
      <point x="468" y="834"/>
      <point x="402" y="834" type="curve" smooth="yes"/>
      <point x="330" y="834"/>
      <point x="265" y="769"/>
      <point x="265" y="697" type="curve" smooth="yes"/>
      <point x="265" y="634"/>
      <point x="313" y="587"/>
    </contour>
    <contour>
      <point x="384" y="651" type="curve" smooth="yes"/>
      <point x="354" y="651"/>
      <point x="332" y="673"/>
      <point x="332" y="704" type="curve" smooth="yes"/>
      <point x="332" y="740"/>
      <point x="361" y="770"/>
      <point x="397" y="770" type="curve" smooth="yes"/>
      <point x="427" y="770"/>
      <point x="449" y="748"/>
      <point x="449" y="717" type="curve" smooth="yes"/>
      <point x="449" y="681"/>
      <point x="420" y="651"/>
    </contour>
  </outline>
</glyph>
<glyph name="ogonek" format="2">
  <advance width="600"/>
  <unicode hex="02DB"/>
  <outline>
    <contour>
      <point x="186" y="-231" type="curve" smooth="yes"/>
      <point x="221" y="-231"/>
      <point x="257" y="-222"/>
      <point x="282" y="-208" type="curve"/>
      <point x="277" y="-138" type="line"/>
      <point x="266" y="-145"/>
      <point x="248" y="-149"/>
      <point x="230" y="-149" type="curve" smooth="yes"/>
      <point x="205" y="-149"/>
      <point x="190" y="-136"/>
      <point x="190" y="-113" type="curve" smooth="yes"/>
      <point x="190" y="-76"/>
      <point x="225" y="-38"/>
      <point x="295" y="0" type="curve"/>
      <point x="254" y="22" type="line"/>
      <point x="149" y="-31"/>
      <point x="98" y="-88"/>
      <point x="98" y="-153" type="curve" smooth="yes"/>
      <point x="98" y="-201"/>
      <point x="132" y="-231"/>
    </contour>
  </outline>
</glyph>
<glyph name="tilde" format="2">
  <advance width="600"/>
  <unicode hex="02DC"/>
  <outline>
    <contour>
      <point x="260" y="594" type="line"/>
      <point x="282" y="645"/>
      <point x="296" y="662"/>
      <point x="315" y="662" type="curve" smooth="yes"/>
      <point x="356" y="662"/>
      <point x="400" y="590"/>
      <point x="470" y="590" type="curve" smooth="yes"/>
      <point x="521" y="590"/>
      <point x="564" y="634"/>
      <point x="604" y="725" type="curve"/>
      <point x="521" y="755" type="line"/>
      <point x="496" y="700"/>
      <point x="487" y="688"/>
      <point x="472" y="688" type="curve" smooth="yes"/>
      <point x="435" y="688"/>
      <point x="382" y="760"/>
      <point x="316" y="760" type="curve" smooth="yes"/>
      <point x="263" y="760"/>
      <point x="218" y="717"/>
      <point x="178" y="625" type="curve"/>
    </contour>
  </outline>
</glyph>
<glyph name="emdash" format="2">
  <advance width="693"/>
  <unicode hex="2014"/>
  <outline>
    <contour>
      <point x="41" y="219" type="line"/>
      <point x="634" y="219" type="line"/>
      <point x="662" y="354" type="line"/>
      <point x="69" y="354" type="line"/>
    </contour>
  </outline>
</glyph>
<glyph name="quoteleft" format="2">
  <advance width="250"/>
  <unicode hex="2018"/>
  <outline>
    <contour>
      <point x="344" y="750" type="line"/>
      <point x="230" y="750" type="line"/>
      <point x="55" y="446" type="line"/>
      <point x="210" y="446" type="line"/>
    </contour>
  </outline>
</glyph>
<glyph name="guilsinglleft" format="2">
  <advance width="447"/>
  <unicode hex="2039"/>
  <outline>
    <contour>
      <point x="201" y="0" type="line"/>
      <point x="354" y="0" type="line"/>
      <point x="188" y="257" type="line"/>
      <point x="468" y="516" type="line"/>
      <point x="313" y="516" type="line"/>
      <point x="28" y="258" type="line"/>
    </contour>
  </outline>
</glyph>
<glyph name="uni2070" format="2">
  <advance width="360"/>
  <unicode hex="2070"/>
  <outline>
    <contour>
      <point x="210" y="345" type="curve" smooth="yes"/>
      <point x="312" y="345"/>
      <point x="393" y="441"/>
      <point x="393" y="564" type="curve" smooth="yes"/>
      <point x="393" y="651"/>
      <point x="341" y="706"/>
      <point x="260" y="706" type="curve" smooth="yes"/>
      <point x="158" y="706"/>
      <point x="77" y="610"/>
      <point x="77" y="487" type="curve" smooth="yes"/>
      <point x="77" y="400"/>
      <point x="128" y="345"/>
    </contour>
    <contour>
      <point x="219" y="427" type="curve" smooth="yes"/>
      <point x="186" y="427"/>
      <point x="167" y="452"/>
      <point x="167" y="495" type="curve" smooth="yes"/>
      <point x="167" y="566"/>
      <point x="204" y="624"/>
      <point x="251" y="624" type="curve" smooth="yes"/>
      <point x="283" y="624"/>
      <point x="302" y="598"/>
      <point x="302" y="556" type="curve" smooth="yes"/>
      <point x="302" y="484"/>
      <point x="265" y="427"/>
    </contour>
  </outline>
</glyph>
<glyph name="uni2075" format="2">
  <advance width="323"/>
  <unicode hex="2075"/>
  <outline>
    <contour>
      <point x="192" y="345" type="curve"/>
      <point x="279" y="345"/>
      <point x="344" y="402"/>
      <point x="344" y="479" type="curve" smooth="yes"/>
      <point x="344" y="534"/>
      <point x="297" y="573"/>
      <point x="231" y="573" type="curve" smooth="yes"/>
      <point x="216" y="573"/>
      <point x="200" y="570"/>
      <point x="182" y="562" type="curve"/>
      <point x="197" y="623" type="line"/>
      <point x="356" y="623" type="line"/>
      <point x="373" y="700" type="line"/>
      <point x="137" y="700" type="line"/>
      <point x="92" y="517" type="line"/>
      <point x="152" y="493" type="line"/>
      <point x="168" y="501"/>
      <point x="180" y="504"/>
      <point x="197" y="504" type="curve" smooth="yes"/>
      <point x="226" y="504"/>
      <point x="248" y="487"/>
      <point x="248" y="464" type="curve" smooth="yes"/>
      <point x="248" y="440"/>
      <point x="223" y="420"/>
      <point x="194" y="420" type="curve"/>
      <point x="168" y="420"/>
      <point x="148" y="429"/>
      <point x="113" y="456" type="curve"/>
      <point x="57" y="393" type="line"/>
      <point x="93" y="360"/>
      <point x="136" y="345"/>
    </contour>
  </outline>
</glyph>
<glyph name="uni2076" format="2">
  <advance width="337"/>
  <unicode hex="2076"/>
  <outline>
    <contour>
      <point x="215" y="345" type="curve" smooth="yes"/>
      <point x="293" y="345"/>
      <point x="356" y="403"/>
      <point x="356" y="474" type="curve" smooth="yes"/>
      <point x="356" y="526"/>
      <point x="317" y="562"/>
      <point x="261" y="562" type="curve" smooth="yes"/>
      <point x="226" y="562"/>
      <point x="194" y="547"/>
      <point x="171" y="521" type="curve"/>
      <point x="180" y="581"/>
      <point x="218" y="625"/>
      <point x="262" y="625" type="curve" smooth="yes"/>
      <point x="289" y="625"/>
      <point x="313" y="614"/>
      <point x="332" y="594" type="curve"/>
      <point x="387" y="659" type="line"/>
      <point x="356" y="691"/>
      <point x="320" y="706"/>
      <point x="277" y="706" type="curve" smooth="yes"/>
      <point x="168" y="706"/>
      <point x="78" y="609"/>
      <point x="78" y="491" type="curve" smooth="yes"/>
      <point x="78" y="400"/>
      <point x="130" y="345"/>
    </contour>
    <contour>
      <point x="223" y="425" type="curve" smooth="yes"/>
      <point x="194" y="425"/>
      <point x="174" y="444"/>
      <point x="169" y="475" type="curve"/>
      <point x="187" y="488"/>
      <point x="207" y="495"/>
      <point x="226" y="495" type="curve" smooth="yes"/>
      <point x="250" y="495"/>
      <point x="267" y="481"/>
      <point x="267" y="462" type="curve" smooth="yes"/>
      <point x="267" y="441"/>
      <point x="248" y="425"/>
    </contour>
  </outline>
</glyph>
<glyph name="uni2077" format="2">
  <advance width="323"/>
  <unicode hex="2077"/>
  <outline>
    <contour>
      <point x="82" y="350" type="line"/>
      <point x="198" y="350" type="line"/>
      <point x="381" y="631" type="line"/>
      <point x="396" y="700" type="line"/>
      <point x="119" y="700" type="line"/>
      <point x="101" y="618" type="line"/>
      <point x="274" y="618" type="line"/>
    </contour>
  </outline>
</glyph>
<glyph name="uni2080" format="2">
  <advance width="359"/>
  <unicode hex="2080"/>
  <outline>
    <contour>
      <point x="136" y="-5" type="curve" smooth="yes"/>
      <point x="238" y="-5"/>
      <point x="319" y="91"/>
      <point x="319" y="214" type="curve" smooth="yes"/>
      <point x="319" y="301"/>
      <point x="267" y="356"/>
      <point x="186" y="356" type="curve" smooth="yes"/>
      <point x="84" y="356"/>
      <point x="3" y="260"/>
      <point x="3" y="137" type="curve" smooth="yes"/>
      <point x="3" y="50"/>
      <point x="54" y="-5"/>
    </contour>
    <contour>
      <point x="145" y="77" type="curve" smooth="yes"/>
      <point x="112" y="77"/>
      <point x="93" y="102"/>
      <point x="93" y="145" type="curve" smooth="yes"/>
      <point x="93" y="216"/>
      <point x="130" y="274"/>
      <point x="177" y="274" type="curve" smooth="yes"/>
      <point x="209" y="274"/>
      <point x="228" y="248"/>
      <point x="228" y="206" type="curve" smooth="yes"/>
      <point x="228" y="134"/>
      <point x="191" y="77"/>
    </contour>
  </outline>
</glyph>
<glyph name="uni2085" format="2">
  <advance width="323"/>
  <unicode hex="2085"/>
  <outline>
    <contour>
      <point x="118" y="-5" type="curve"/>
      <point x="205" y="-5"/>
      <point x="270" y="52"/>
      <point x="270" y="129" type="curve" smooth="yes"/>
      <point x="270" y="184"/>
      <point x="223" y="223"/>
      <point x="157" y="223" type="curve" smooth="yes"/>
      <point x="142" y="223"/>
      <point x="126" y="220"/>
      <point x="108" y="212" type="curve"/>
      <point x="123" y="273" type="line"/>
      <point x="282" y="273" type="line"/>
      <point x="299" y="350" type="line"/>
      <point x="63" y="350" type="line"/>
      <point x="18" y="167" type="line"/>
      <point x="78" y="143" type="line"/>
      <point x="94" y="151"/>
      <point x="106" y="154"/>
      <point x="123" y="154" type="curve" smooth="yes"/>
      <point x="152" y="154"/>
      <point x="174" y="137"/>
      <point x="174" y="114" type="curve" smooth="yes"/>
      <point x="174" y="90"/>
      <point x="149" y="70"/>
      <point x="120" y="70" type="curve"/>
      <point x="94" y="70"/>
      <point x="74" y="79"/>
      <point x="39" y="106" type="curve"/>
      <point x="-17" y="43" type="line"/>
      <point x="19" y="10"/>
      <point x="62" y="-5"/>
    </contour>
  </outline>
</glyph>
<glyph name="uni2086" format="2">
  <advance width="340"/>
  <unicode hex="2086"/>
  <outline>
    <contour>
      <point x="141" y="-5" type="curve" smooth="yes"/>
      <point x="219" y="-5"/>
      <point x="282" y="53"/>
      <point x="282" y="124" type="curve" smooth="yes"/>
      <point x="282" y="176"/>
      <point x="243" y="212"/>
      <point x="187" y="212" type="curve" smooth="yes"/>
      <point x="152" y="212"/>
      <point x="120" y="197"/>
      <point x="97" y="171" type="curve"/>
      <point x="106" y="231"/>
      <point x="144" y="275"/>
      <point x="188" y="275" type="curve" smooth="yes"/>
      <point x="215" y="275"/>
      <point x="239" y="264"/>
      <point x="258" y="244" type="curve"/>
      <point x="313" y="309" type="line"/>
      <point x="282" y="341"/>
      <point x="246" y="356"/>
      <point x="203" y="356" type="curve" smooth="yes"/>
      <point x="94" y="356"/>
      <point x="4" y="259"/>
      <point x="4" y="141" type="curve" smooth="yes"/>
      <point x="4" y="50"/>
      <point x="56" y="-5"/>
    </contour>
    <contour>
      <point x="149" y="75" type="curve" smooth="yes"/>
      <point x="120" y="75"/>
      <point x="100" y="94"/>
      <point x="95" y="125" type="curve"/>
      <point x="113" y="138"/>
      <point x="133" y="145"/>
      <point x="152" y="145" type="curve" smooth="yes"/>
      <point x="176" y="145"/>
      <point x="193" y="131"/>
      <point x="193" y="112" type="curve" smooth="yes"/>
      <point x="193" y="91"/>
      <point x="174" y="75"/>
    </contour>
  </outline>
</glyph>
<glyph name="uni2087" format="2">
  <advance width="323"/>
  <unicode hex="2087"/>
  <outline>
    <contour>
      <point x="8" y="0" type="line"/>
      <point x="124" y="0" type="line"/>
      <point x="307" y="281" type="line"/>
      <point x="322" y="350" type="line"/>
      <point x="45" y="350" type="line"/>
      <point x="27" y="268" type="line"/>
      <point x="200" y="268" type="line"/>
    </contour>
  </outline>
</glyph>
<glyph name="uni2088" format="2">
  <advance width="333"/>
  <unicode hex="2088"/>
  <outline>
    <contour>
      <point x="124" y="-6" type="curve" smooth="yes"/>
      <point x="204" y="-6"/>
      <point x="270" y="44"/>
      <point x="270" y="104" type="curve" smooth="yes"/>
      <point x="270" y="137"/>
      <point x="249" y="163"/>
      <point x="216" y="173" type="curve"/>
      <point x="261" y="187"/>
      <point x="294" y="224"/>
      <point x="294" y="266" type="curve" smooth="yes"/>
      <point x="294" y="317"/>
      <point x="243" y="356"/>
      <point x="175" y="356" type="curve" smooth="yes"/>
      <point x="98" y="356"/>
      <point x="33" y="304"/>
      <point x="33" y="244" type="curve" smooth="yes"/>
      <point x="33" y="215"/>
      <point x="50" y="192"/>
      <point x="77" y="180" type="curve"/>
      <point x="28" y="169"/>
      <point x="-8" y="130"/>
      <point x="-8" y="84" type="curve" smooth="yes"/>
      <point x="-8" y="31"/>
      <point x="46" y="-6"/>
    </contour>
    <contour>
      <point x="160" y="208" type="curve" smooth="yes"/>
      <point x="138" y="208"/>
      <point x="122" y="222"/>
      <point x="122" y="240" type="curve" smooth="yes"/>
      <point x="122" y="262"/>
      <point x="142" y="280"/>
      <point x="166" y="280" type="curve" smooth="yes"/>
      <point x="186" y="280"/>
      <point x="202" y="266"/>
      <point x="202" y="248" type="curve" smooth="yes"/>
      <point x="202" y="228"/>
      <point x="181" y="208"/>
    </contour>
    <contour>
      <point x="131" y="71" type="curve" smooth="yes"/>
      <point x="105" y="71"/>
      <point x="87" y="84"/>
      <point x="87" y="103" type="curve" smooth="yes"/>
      <point x="87" y="125"/>
      <point x="108" y="142"/>
      <point x="135" y="142" type="curve" smooth="yes"/>
      <point x="161" y="142"/>
      <point x="178" y="128"/>
      <point x="178" y="108" type="curve" smooth="yes"/>
      <point x="178" y="87"/>
      <point x="158" y="71"/>
    </contour>
  </outline>
</glyph>
<glyph name="trademark" format="2">
  <advance width="675"/>
  <unicode hex="2122"/>
  <outline>
    <contour>
      <point x="354" y="421" type="line"/>
      <point x="426" y="421" type="line"/>
      <point x="465" y="608" type="line"/>
      <point x="513" y="438" type="line"/>
      <point x="631" y="603" type="line"/>
      <point x="591" y="421" type="line"/>
      <point x="660" y="421" type="line"/>
      <point x="720" y="700" type="line"/>
      <point x="628" y="700" type="line"/>
      <point x="537" y="565" type="line"/>
      <point x="502" y="700" type="line"/>
      <point x="414" y="700" type="line"/>
    </contour>
    <contour>
      <point x="154" y="421" type="line"/>
      <point x="230" y="421" type="line"/>
      <point x="276" y="633" type="line"/>
      <point x="361" y="633" type="line"/>
      <point x="375" y="700" type="line"/>
      <point x="130" y="700" type="line"/>
      <point x="116" y="633" type="line"/>
      <point x="200" y="633" type="line"/>
    </contour>
  </outline>
</glyph>
<glyph name="aogonek.school" format="2">
  <advance width="628"/>
  <outline>
    <contour>
      <point x="403" y="-231" type="curve" smooth="yes"/>
      <point x="438" y="-231"/>
      <point x="474" y="-222"/>
      <point x="499" y="-208" type="curve"/>
      <point x="494" y="-138" type="line"/>
      <point x="483" y="-145"/>
      <point x="465" y="-149"/>
      <point x="447" y="-149" type="curve" smooth="yes"/>
      <point x="422" y="-149"/>
      <point x="407" y="-136"/>
      <point x="407" y="-113" type="curve" smooth="yes"/>
      <point x="407" y="-76"/>
      <point x="442" y="-38"/>
      <point x="512" y="0" type="curve"/>
      <point x="624" y="516" type="line"/>
      <point x="466" y="516" type="line"/>
      <point x="450" y="441" type="line"/>
      <point x="418" y="491"/>
      <point x="366" y="519"/>
      <point x="302" y="519" type="curve" smooth="yes"/>
      <point x="158" y="519"/>
      <point x="41" y="391"/>
      <point x="41" y="233" type="curve" smooth="yes"/>
      <point x="41" y="101"/>
      <point x="126" y="-3"/>
      <point x="235" y="-3" type="curve" smooth="yes"/>
      <point x="285" y="-3"/>
      <point x="331" y="16"/>
      <point x="365" y="48" type="curve"/>
      <point x="355" y="0" type="line"/>
      <point x="431" y="0" type="line"/>
      <point x="353" y="-47"/>
      <point x="315" y="-97"/>
      <point x="315" y="-153" type="curve" smooth="yes"/>
      <point x="315" y="-201"/>
      <point x="349" y="-231"/>
    </contour>
    <contour>
      <point x="197" y="246" type="curve" smooth="yes"/>
      <point x="197" y="325"/>
      <point x="253" y="385"/>
      <point x="327" y="385" type="curve" smooth="yes"/>
      <point x="368" y="385"/>
      <point x="404" y="368"/>
      <point x="428" y="341" type="curve"/>
      <point x="389" y="163" type="line"/>
      <point x="364" y="140"/>
      <point x="337" y="130"/>
      <point x="305" y="130" type="curve" smooth="yes"/>
      <point x="242" y="130"/>
      <point x="197" y="179"/>
    </contour>
  </outline>
</glyph>
<glyph name="caronSlovak" format="2">
  <advance width="600"/>
  <outline>
    <contour>
      <point x="281" y="498" type="line"/>
      <point x="370" y="498" type="line"/>
      <point x="470" y="737" type="line"/>
      <point x="335" y="712" type="line"/>
    </contour>
  </outline>
</glyph>
<glyph name="commaaccent" format="2">
  <advance width="600"/>
  <outline>
    <contour>
      <point x="75" y="-305" type="line"/>
      <point x="184" y="-305" type="line"/>
      <point x="324" y="-90" type="line"/>
      <point x="183" y="-90" type="line"/>
    </contour>
  </outline>
</glyph>
<glyph name="eight.tab" format="2">
  <advance width="600"/>
  <note>
Version created Tue Sep 18 15:49:42 2018
</note>
  <outline>
    <contour>
      <point x="274" y="-11" type="curve" smooth="yes"/>
      <point x="433" y="-11"/>
      <point x="558" y="88"/>
      <point x="558" y="215" type="curve" smooth="yes"/>
      <point x="558" y="276"/>
      <point x="519" y="326"/>
      <point x="459" y="351" type="curve"/>
      <point x="542" y="379"/>
      <point x="604" y="450"/>
      <point x="604" y="528" type="curve" smooth="yes"/>
      <point x="604" y="635"/>
      <point x="509" y="711"/>
      <point x="376" y="711" type="curve" smooth="yes"/>
      <point x="228" y="711"/>
      <point x="106" y="611"/>
      <point x="106" y="488" type="curve" smooth="yes"/>
      <point x="106" y="437"/>
      <point x="136" y="393"/>
      <point x="185" y="367" type="curve"/>
      <point x="91" y="342"/>
      <point x="21" y="265"/>
      <point x="21" y="176" type="curve" smooth="yes"/>
      <point x="21" y="65"/>
      <point x="123" y="-11"/>
    </contour>
    <contour>
      <point x="346" y="411" type="curve" smooth="yes"/>
      <point x="293" y="411"/>
      <point x="254" y="443"/>
      <point x="254" y="488" type="curve" smooth="yes"/>
      <point x="254" y="541"/>
      <point x="303" y="584"/>
      <point x="362" y="584" type="curve" smooth="yes"/>
      <point x="414" y="584"/>
      <point x="452" y="551"/>
      <point x="452" y="505" type="curve" smooth="yes"/>
      <point x="452" y="455"/>
      <point x="403" y="411"/>
    </contour>
    <contour>
      <point x="286" y="118" type="curve" smooth="yes"/>
      <point x="221" y="118"/>
      <point x="177" y="153"/>
      <point x="177" y="203" type="curve" smooth="yes"/>
      <point x="177" y="257"/>
      <point x="230" y="300"/>
      <point x="297" y="300" type="curve" smooth="yes"/>
      <point x="362" y="300"/>
      <point x="407" y="265"/>
      <point x="407" y="216" type="curve" smooth="yes"/>
      <point x="407" y="161"/>
      <point x="353" y="118"/>
    </contour>
  </outline>
</glyph>
<glyph name="five.tab" format="2">
  <advance width="600"/>
  <outline>
    <contour>
      <point x="262" y="-9" type="curve" smooth="yes"/>
      <point x="429" y="-9"/>
      <point x="556" y="104"/>
      <point x="556" y="252" type="curve" smooth="yes"/>
      <point x="556" y="364"/>
      <point x="465" y="443"/>
      <point x="336" y="443" type="curve" smooth="yes"/>
      <point x="300" y="443"/>
      <point x="263" y="435"/>
      <point x="229" y="420" type="curve"/>
      <point x="268" y="569" type="line"/>
      <point x="588" y="569" type="line"/>
      <point x="617" y="700" type="line"/>
      <point x="166" y="700" type="line"/>
      <point x="76" y="343" type="line"/>
      <point x="174" y="303" type="line"/>
      <point x="211" y="319"/>
      <point x="243" y="327"/>
      <point x="274" y="327" type="curve" smooth="yes"/>
      <point x="346" y="327"/>
      <point x="400" y="285"/>
      <point x="400" y="229" type="curve" smooth="yes"/>
      <point x="400" y="169"/>
      <point x="345" y="123"/>
      <point x="273" y="123" type="curve" smooth="yes"/>
      <point x="209" y="123"/>
      <point x="159" y="148"/>
      <point x="107" y="205" type="curve"/>
      <point x="-2" y="106" type="line"/>
      <point x="61" y="31"/>
      <point x="153" y="-9"/>
    </contour>
  </outline>
</glyph>
<glyph name="g.alt" format="2">
  <advance width="626"/>
  <note>
Version created Sun Jan 13 16:53:00 2019
</note>
  <anchor x="334" y="516" name="top"/>
  <outline>
    <contour>
      <point x="244" y="-219" type="curve" smooth="yes"/>
      <point x="426" y="-219"/>
      <point x="546" y="-147"/>
      <point x="546" y="-38" type="curve" smooth="yes"/>
      <point x="546" y="25"/>
      <point x="493" y="66"/>
      <point x="397" y="77" type="curve" smooth="yes"/>
      <point x="216" y="94" type="line" smooth="yes"/>
      <point x="186" y="97"/>
      <point x="171" y="106"/>
      <point x="171" y="121" type="curve" smooth="yes"/>
      <point x="171" y="138"/>
      <point x="183" y="150"/>
      <point x="204" y="156" type="curve"/>
      <point x="232" y="147"/>
      <point x="264" y="142"/>
      <point x="298" y="142" type="curve" smooth="yes"/>
      <point x="442" y="142"/>
      <point x="554" y="232"/>
      <point x="554" y="347" type="curve" smooth="yes"/>
      <point x="554" y="371"/>
      <point x="549" y="393"/>
      <point x="539" y="414" type="curve"/>
      <point x="553" y="420"/>
      <point x="569" y="424"/>
      <point x="586" y="424" type="curve" smooth="yes"/>
      <point x="608" y="424"/>
      <point x="634" y="419"/>
      <point x="650" y="412" type="curve"/>
      <point x="676" y="538" type="line"/>
      <point x="661" y="544"/>
      <point x="653" y="545"/>
      <point x="639" y="545" type="curve" smooth="yes"/>
      <point x="591" y="545"/>
      <point x="552" y="515"/>
      <point x="516" y="448" type="curve"/>
      <point x="476" y="495"/>
      <point x="407" y="524"/>
      <point x="325" y="524" type="curve" smooth="yes"/>
      <point x="185" y="524"/>
      <point x="71" y="431"/>
      <point x="71" y="316" type="curve" smooth="yes"/>
      <point x="71" y="253"/>
      <point x="109" y="200"/>
      <point x="170" y="170" type="curve"/>
      <point x="89" y="160"/>
      <point x="35" y="115"/>
      <point x="35" y="53" type="curve" smooth="yes"/>
      <point x="35" y="24"/>
      <point x="50" y="1"/>
      <point x="79" y="-15" type="curve"/>
      <point x="-2" y="-25"/>
      <point x="-50" y="-57"/>
      <point x="-50" y="-104" type="curve" smooth="yes"/>
      <point x="-50" y="-174"/>
      <point x="66" y="-219"/>
    </contour>
    <contour>
      <point x="303" y="248" type="curve" smooth="yes"/>
      <point x="253" y="248"/>
      <point x="219" y="279"/>
      <point x="219" y="323" type="curve" smooth="yes"/>
      <point x="219" y="374"/>
      <point x="263" y="414"/>
      <point x="320" y="414" type="curve" smooth="yes"/>
      <point x="369" y="414"/>
      <point x="404" y="383"/>
      <point x="404" y="340" type="curve" smooth="yes"/>
      <point x="404" y="289"/>
      <point x="359" y="248"/>
    </contour>
    <contour>
      <point x="254" y="-122" type="curve" smooth="yes"/>
      <point x="154" y="-122"/>
      <point x="95" y="-102"/>
      <point x="95" y="-69" type="curve" smooth="yes"/>
      <point x="95" y="-53"/>
      <point x="105" y="-40"/>
      <point x="122" y="-32" type="curve"/>
      <point x="141" y="-38"/>
      <point x="163" y="-42"/>
      <point x="188" y="-44" type="curve" smooth="yes"/>
      <point x="345" y="-58" type="line" smooth="yes"/>
      <point x="368" y="-61"/>
      <point x="380" y="-68"/>
      <point x="380" y="-79" type="curve" smooth="yes"/>
      <point x="380" y="-105"/>
      <point x="330" y="-122"/>
    </contour>
  </outline>
</glyph>
<glyph name="gcommaaccent.alt" format="2">
  <advance width="626"/>
  <outline>
    <contour>
      <point x="560" y="842" type="line"/>
      <point x="451" y="842" type="line"/>
      <point x="311" y="627" type="line"/>
      <point x="452" y="627" type="line"/>
    </contour>
    <component base="g.alt"/>
  </outline>
</glyph>
<glyph name="gravecomb" format="2">
  <anchor x="359" y="516" name="_top"/>
  <outline>
    <contour>
      <point x="328" y="601" type="line"/>
      <point x="469" y="601" type="line"/>
      <point x="333" y="747" type="line"/>
      <point x="139" y="747" type="line"/>
    </contour>
  </outline>
</glyph>
<glyph name="questiondown.cap" format="2">
  <advance width="469"/>
  <outline>
    <contour>
      <point x="343" y="711" type="curve" smooth="yes"/>
      <point x="291" y="711"/>
      <point x="245" y="663"/>
      <point x="245" y="609" type="curve" smooth="yes"/>
      <point x="245" y="564"/>
      <point x="277" y="530"/>
      <point x="321" y="530" type="curve" smooth="yes"/>
      <point x="375" y="530"/>
      <point x="421" y="576"/>
      <point x="421" y="632" type="curve" smooth="yes"/>
      <point x="421" y="677"/>
      <point x="388" y="711"/>
    </contour>
    <contour>
      <point x="369" y="470" type="curve"/>
      <point x="242" y="470" type="line"/>
      <point x="234" y="430"/>
      <point x="219" y="411"/>
      <point x="175" y="387" type="curve" smooth="yes"/>
      <point x="148" y="371" type="line" smooth="yes"/>
      <point x="35" y="304"/>
      <point x="-11" y="243"/>
      <point x="-11" y="161" type="curve" smooth="yes"/>
      <point x="-11" y="60"/>
      <point x="76" y="-10"/>
      <point x="201" y="-10" type="curve" smooth="yes"/>
      <point x="306" y="-10"/>
      <point x="405" y="49"/>
      <point x="459" y="146" type="curve"/>
      <point x="348" y="201" type="line"/>
      <point x="322" y="155"/>
      <point x="273" y="125"/>
      <point x="222" y="125" type="curve" smooth="yes"/>
      <point x="172" y="125"/>
      <point x="141" y="148"/>
      <point x="141" y="185" type="curve"/>
      <point x="141" y="211"/>
      <point x="162" y="238"/>
      <point x="202" y="263" type="curve" smooth="yes"/>
      <point x="261" y="301" type="line" smooth="yes"/>
      <point x="328" y="342"/>
      <point x="354" y="384"/>
    </contour>
  </outline>
</glyph>
<glyph name="seven.tab" format="2">
  <advance width="600"/>
  <outline>
    <contour>
      <point x="53" y="0" type="line"/>
      <point x="244" y="0" type="line"/>
      <point x="638" y="585" type="line"/>
      <point x="664" y="700" type="line"/>
      <point x="129" y="700" type="line"/>
      <point x="99" y="564" type="line"/>
      <point x="465" y="564" type="line"/>
    </contour>
  </outline>
</glyph>
<glyph name="three.tab" format="2">
  <advance width="600"/>
  <outline>
    <contour>
      <point x="279" y="-10" type="curve" smooth="yes"/>
      <point x="438" y="-10"/>
      <point x="562" y="84"/>
      <point x="562" y="203" type="curve" smooth="yes"/>
      <point x="562" y="272"/>
      <point x="522" y="320"/>
      <point x="449" y="341" type="curve"/>
      <point x="545" y="362"/>
      <point x="613" y="433"/>
      <point x="613" y="525" type="curve" smooth="yes"/>
      <point x="613" y="633"/>
      <point x="511" y="710"/>
      <point x="368" y="710" type="curve" smooth="yes"/>
      <point x="275" y="710"/>
      <point x="178" y="674"/>
      <point x="110" y="614" type="curve"/>
      <point x="186" y="508" type="line"/>
      <point x="241" y="551"/>
      <point x="301" y="574"/>
      <point x="358" y="574" type="curve" smooth="yes"/>
      <point x="416" y="574"/>
      <point x="456" y="544"/>
      <point x="456" y="500" type="curve" smooth="yes"/>
      <point x="456" y="447"/>
      <point x="408" y="411"/>
      <point x="338" y="411" type="curve" smooth="yes"/>
      <point x="275" y="411" type="line"/>
      <point x="248" y="283" type="line"/>
      <point x="317" y="283" type="line" smooth="yes"/>
      <point x="378" y="283"/>
      <point x="412" y="259"/>
      <point x="412" y="216" type="curve" smooth="yes"/>
      <point x="412" y="163"/>
      <point x="359" y="126"/>
      <point x="282" y="126" type="curve" smooth="yes"/>
      <point x="217" y="126"/>
      <point x="167" y="153"/>
      <point x="118" y="216" type="curve"/>
      <point x="6" y="131" type="line"/>
      <point x="58" y="45"/>
      <point x="164" y="-10"/>
    </contour>
  </outline>
</glyph>
